<svg xmlns="http://www.w3.org/2000/svg" xmlns:xlink="http://www.w3.org/1999/xlink" width="500" zoomAndPan="magnify" viewBox="0 0 375 374.999991" height="500" preserveAspectRatio="xMidYMid meet" version="1.0"><defs><g/></defs><rect x="-37.5" width="450" fill="#ffffff" y="-37.499999" height="449.999989" fill-opacity="1"/><rect x="-37.5" width="450" fill="#ffffff" y="-37.499999" height="449.999989" fill-opacity="1"/><g fill="#000000" fill-opacity="1"><g transform="translate(38.938478, 210.749986)"><g><path d="M 65.40625 0 L 5.703125 0 L 5.703125 -51.15625 L 27.15625 -51.15625 L 27.15625 -12.65625 L 65.40625 -12.65625 Z M 65.40625 0 "/></g></g></g><g fill="#000000" fill-opacity="1"><g transform="translate(103.629796, 210.749986)"><g><path d="M 38.671875 1.109375 C 26.035156 1.109375 16.734375 -1.492188 10.765625 -6.703125 C 5.492188 -11.304688 2.859375 -17.59375 2.859375 -25.5625 C 2.859375 -33.5 5.492188 -39.769531 10.765625 -44.375 C 16.734375 -49.582031 26.035156 -52.1875 38.671875 -52.1875 C 51.316406 -52.1875 60.617188 -49.582031 66.578125 -44.375 C 71.859375 -39.769531 74.5 -33.5 74.5 -25.5625 C 74.5 -17.59375 71.859375 -11.304688 66.578125 -6.703125 C 60.617188 -1.492188 51.316406 1.109375 38.671875 1.109375 Z M 38.671875 -12.625 C 43.847656 -12.625 47.648438 -14.109375 50.078125 -17.078125 C 52.023438 -19.472656 53 -22.300781 53 -25.5625 C 53 -28.8125 52.023438 -31.625 50.078125 -34 C 47.648438 -37 43.847656 -38.5 38.671875 -38.5 C 33.492188 -38.5 29.679688 -37 27.234375 -34 C 25.285156 -31.625 24.3125 -28.8125 24.3125 -25.5625 C 24.3125 -22.300781 25.285156 -19.472656 27.234375 -17.078125 C 29.679688 -14.109375 33.492188 -12.625 38.671875 -12.625 Z M 38.671875 -12.625 "/></g></g></g><g fill="#000000" fill-opacity="1"><g transform="translate(180.974285, 210.749986)"><g><path d="M 38.671875 1.109375 C 26.035156 1.109375 16.734375 -1.492188 10.765625 -6.703125 C 5.492188 -11.304688 2.859375 -17.578125 2.859375 -25.515625 C 2.859375 -33.484375 5.492188 -39.769531 10.765625 -44.375 C 16.734375 -49.582031 26.035156 -52.1875 38.671875 -52.1875 C 45.867188 -52.1875 51.851562 -51.378906 56.625 -49.765625 C 61.40625 -48.148438 65.15625 -45.941406 67.875 -43.140625 C 70.601562 -40.347656 72.46875 -37.132812 73.46875 -33.5 L 50.515625 -33.5 C 48.109375 -36.800781 44.160156 -38.453125 38.671875 -38.453125 C 33.492188 -38.453125 29.679688 -36.96875 27.234375 -34 C 25.285156 -31.601562 24.3125 -28.773438 24.3125 -25.515625 C 24.3125 -22.265625 25.285156 -19.453125 27.234375 -17.078125 C 29.679688 -14.109375 33.492188 -12.625 38.671875 -12.625 C 42.859375 -12.625 46 -12.984375 48.09375 -13.703125 C 50.195312 -14.429688 51.738281 -15.378906 52.71875 -16.546875 L 44.34375 -16.546875 L 44.34375 -25.515625 L 73.46875 -25.515625 L 73.46875 0.03125 L 64.546875 0.03125 L 62.734375 -4.921875 C 57.054688 -0.898438 49.035156 1.109375 38.671875 1.109375 Z M 38.671875 1.109375 "/></g></g></g><g fill="#000000" fill-opacity="1"><g transform="translate(258.710848, 210.749986)"><g><path d="M 38.671875 1.109375 C 26.035156 1.109375 16.734375 -1.492188 10.765625 -6.703125 C 5.492188 -11.304688 2.859375 -17.59375 2.859375 -25.5625 C 2.859375 -33.5 5.492188 -39.769531 10.765625 -44.375 C 16.734375 -49.582031 26.035156 -52.1875 38.671875 -52.1875 C 51.316406 -52.1875 60.617188 -49.582031 66.578125 -44.375 C 71.859375 -39.769531 74.5 -33.5 74.5 -25.5625 C 74.5 -17.59375 71.859375 -11.304688 66.578125 -6.703125 C 60.617188 -1.492188 51.316406 1.109375 38.671875 1.109375 Z M 38.671875 -12.625 C 43.847656 -12.625 47.648438 -14.109375 50.078125 -17.078125 C 52.023438 -19.472656 53 -22.300781 53 -25.5625 C 53 -28.8125 52.023438 -31.625 50.078125 -34 C 47.648438 -37 43.847656 -38.5 38.671875 -38.5 C 33.492188 -38.5 29.679688 -37 27.234375 -34 C 25.285156 -31.625 24.3125 -28.8125 24.3125 -25.5625 C 24.3125 -22.300781 25.285156 -19.472656 27.234375 -17.078125 C 29.679688 -14.109375 33.492188 -12.625 38.671875 -12.625 Z M 38.671875 -12.625 "/></g></g></g></svg>