<svg xmlns="http://www.w3.org/2000/svg" xmlns:xlink="http://www.w3.org/1999/xlink" width="500" zoomAndPan="magnify" viewBox="0 0 375 374.999991" height="500" preserveAspectRatio="xMidYMid meet" version="1.2"><defs/><g id="93691f6155"><rect x="0" width="375" y="0" height="374.999991" style="fill:#ffffff;fill-opacity:1;stroke:none;"/><rect x="0" width="375" y="0" height="374.999991" style="fill:#000000;fill-opacity:1;stroke:none;"/><g style="fill:#ffffff;fill-opacity:1;"><g transform="translate(15.738285, 67.038732)"><path style="stroke:none" d="M 1.578125 0 L 1.578125 -2.078125 L 2.390625 -2.078125 C 3.066406 -2.078125 3.648438 -2.171875 4.140625 -2.359375 C 4.628906 -2.546875 5.007812 -2.898438 5.28125 -3.421875 C 5.550781 -3.953125 5.6875 -4.726562 5.6875 -5.75 L 5.6875 -30.75 C 5.6875 -31.769531 5.535156 -32.523438 5.234375 -33.015625 C 4.929688 -33.503906 4.53125 -33.820312 4.03125 -33.96875 C 3.539062 -34.125 2.992188 -34.203125 2.390625 -34.203125 L 1.578125 -34.203125 L 1.578125 -36.296875 L 13.578125 -36.296875 C 17.367188 -36.296875 20.21875 -35.582031 22.125 -34.15625 C 24.039062 -32.726562 25 -30.472656 25 -27.390625 C 25 -25.898438 24.742188 -24.628906 24.234375 -23.578125 C 23.734375 -22.535156 23.050781 -21.664062 22.1875 -20.96875 C 21.320312 -20.269531 20.363281 -19.734375 19.3125 -19.359375 L 19.3125 -19.109375 C 20.707031 -18.910156 21.925781 -18.425781 22.96875 -17.65625 C 24.019531 -16.894531 24.832031 -15.851562 25.40625 -14.53125 C 25.988281 -13.207031 26.28125 -11.632812 26.28125 -9.8125 C 26.28125 -6.519531 25.335938 -4.0625 23.453125 -2.4375 C 21.578125 -0.8125 18.722656 0 14.890625 0 Z M 14.53125 -2.484375 C 16.90625 -2.484375 18.609375 -3.039062 19.640625 -4.15625 C 20.679688 -5.28125 21.203125 -7.21875 21.203125 -9.96875 C 21.203125 -11.726562 20.988281 -13.179688 20.5625 -14.328125 C 20.132812 -15.484375 19.445312 -16.347656 18.5 -16.921875 C 17.550781 -17.503906 16.25 -17.796875 14.59375 -17.796875 L 10.46875 -17.796875 L 10.46875 -2.484375 Z M 13.375 -20.28125 C 15.03125 -20.28125 16.332031 -20.523438 17.28125 -21.015625 C 18.226562 -21.503906 18.90625 -22.253906 19.3125 -23.265625 C 19.71875 -24.285156 19.921875 -25.59375 19.921875 -27.1875 C 19.921875 -29.695312 19.40625 -31.425781 18.375 -32.375 C 17.34375 -33.320312 15.65625 -33.796875 13.3125 -33.796875 L 10.46875 -33.796875 L 10.46875 -20.28125 Z M 13.375 -20.28125 "/></g></g><g style="fill:#ffffff;fill-opacity:1;"><g transform="translate(44.504827, 67.038732)"><path style="stroke:none" d="M 15.75 0.515625 C 13.519531 0.515625 11.570312 0.132812 9.90625 -0.625 C 8.25 -1.394531 6.976562 -2.625 6.09375 -4.3125 C 5.21875 -6.007812 4.78125 -8.234375 4.78125 -10.984375 L 4.78125 -30.75 C 4.78125 -31.769531 4.617188 -32.523438 4.296875 -33.015625 C 3.972656 -33.503906 3.546875 -33.820312 3.015625 -33.96875 C 2.492188 -34.125 1.910156 -34.203125 1.265625 -34.203125 L 0.65625 -34.203125 L 0.65625 -36.296875 L 13.671875 -36.296875 L 13.671875 -34.203125 L 13.109375 -34.203125 C 12.429688 -34.203125 11.828125 -34.117188 11.296875 -33.953125 C 10.773438 -33.785156 10.363281 -33.445312 10.0625 -32.9375 C 9.757812 -32.425781 9.609375 -31.628906 9.609375 -30.546875 L 9.609375 -10.671875 C 9.609375 -7.691406 10.257812 -5.582031 11.5625 -4.34375 C 12.863281 -3.101562 14.566406 -2.484375 16.671875 -2.484375 C 18.296875 -2.484375 19.625 -2.835938 20.65625 -3.546875 C 21.695312 -4.265625 22.476562 -5.222656 23 -6.421875 C 23.519531 -7.628906 23.78125 -8.992188 23.78125 -10.515625 L 23.78125 -30.75 C 23.78125 -31.769531 23.617188 -32.523438 23.296875 -33.015625 C 22.984375 -33.503906 22.570312 -33.820312 22.0625 -33.96875 C 21.550781 -34.125 20.957031 -34.203125 20.28125 -34.203125 L 19.71875 -34.203125 L 19.71875 -36.296875 L 30.65625 -36.296875 L 30.65625 -34.203125 L 30.09375 -34.203125 C 29.414062 -34.203125 28.804688 -34.117188 28.265625 -33.953125 C 27.722656 -33.785156 27.296875 -33.445312 26.984375 -32.9375 C 26.679688 -32.425781 26.53125 -31.628906 26.53125 -30.546875 L 26.53125 -10.421875 C 26.53125 -8.179688 26.128906 -6.25 25.328125 -4.625 C 24.535156 -3 23.332031 -1.734375 21.71875 -0.828125 C 20.113281 0.0664062 18.125 0.515625 15.75 0.515625 Z M 15.75 0.515625 "/></g></g><g style="fill:#ffffff;fill-opacity:1;"><g transform="translate(75.812587, 67.038732)"><path style="stroke:none" d="M 11.328125 0.515625 C 9.742188 0.515625 8.363281 0.34375 7.1875 0 C 6.019531 -0.34375 5.054688 -0.828125 4.296875 -1.453125 C 3.535156 -2.078125 2.96875 -2.8125 2.59375 -3.65625 C 2.21875 -4.507812 2.03125 -5.441406 2.03125 -6.453125 C 2.03125 -7.160156 2.171875 -7.773438 2.453125 -8.296875 C 2.742188 -8.828125 3.132812 -9.238281 3.625 -9.53125 C 4.125 -9.820312 4.726562 -9.96875 5.4375 -9.96875 C 5.507812 -8.4375 5.789062 -7.050781 6.28125 -5.8125 C 6.769531 -4.582031 7.472656 -3.617188 8.390625 -2.921875 C 9.304688 -2.222656 10.40625 -1.875 11.6875 -1.875 C 13.550781 -1.875 14.988281 -2.425781 16 -3.53125 C 17.019531 -4.632812 17.53125 -6.1875 17.53125 -8.1875 C 17.53125 -9.570312 17.285156 -10.726562 16.796875 -11.65625 C 16.304688 -12.59375 15.550781 -13.441406 14.53125 -14.203125 C 13.519531 -14.960938 12.179688 -15.75 10.515625 -16.5625 C 8.785156 -17.476562 7.34375 -18.441406 6.1875 -19.453125 C 5.039062 -20.472656 4.1875 -21.648438 3.625 -22.984375 C 3.070312 -24.328125 2.796875 -25.929688 2.796875 -27.796875 C 2.796875 -29.628906 3.21875 -31.210938 4.0625 -32.546875 C 4.914062 -33.890625 6.0625 -34.929688 7.5 -35.671875 C 8.9375 -36.421875 10.570312 -36.796875 12.40625 -36.796875 C 14.195312 -36.796875 15.710938 -36.515625 16.953125 -35.953125 C 18.191406 -35.398438 19.128906 -34.691406 19.765625 -33.828125 C 20.410156 -32.960938 20.734375 -32.039062 20.734375 -31.0625 C 20.734375 -29.96875 20.421875 -29.164062 19.796875 -28.65625 C 19.171875 -28.15625 18.265625 -27.90625 17.078125 -27.90625 C 17.078125 -29.019531 16.898438 -30.066406 16.546875 -31.046875 C 16.191406 -32.035156 15.640625 -32.832031 14.890625 -33.4375 C 14.148438 -34.050781 13.1875 -34.359375 12 -34.359375 C 10.375 -34.359375 9.128906 -33.820312 8.265625 -32.75 C 7.398438 -31.6875 6.96875 -30.238281 6.96875 -28.40625 C 6.96875 -27.15625 7.171875 -26.082031 7.578125 -25.1875 C 7.984375 -24.289062 8.675781 -23.476562 9.65625 -22.75 C 10.632812 -22.019531 11.972656 -21.210938 13.671875 -20.328125 C 15.429688 -19.484375 16.910156 -18.566406 18.109375 -17.578125 C 19.316406 -16.597656 20.234375 -15.472656 20.859375 -14.203125 C 21.492188 -12.929688 21.8125 -11.382812 21.8125 -9.5625 C 21.8125 -7.382812 21.367188 -5.554688 20.484375 -4.078125 C 19.597656 -2.609375 18.367188 -1.472656 16.796875 -0.671875 C 15.222656 0.117188 13.398438 0.515625 11.328125 0.515625 Z M 11.328125 0.515625 "/></g></g><g style="fill:#ffffff;fill-opacity:1;"><g transform="translate(99.598352, 67.038732)"><path style="stroke:none" d="M 1.578125 0 L 1.578125 -2.078125 L 2.4375 -2.078125 C 3.050781 -2.078125 3.601562 -2.160156 4.09375 -2.328125 C 4.582031 -2.503906 4.96875 -2.851562 5.25 -3.375 C 5.539062 -3.90625 5.6875 -4.660156 5.6875 -5.640625 L 5.6875 -30.546875 C 5.6875 -31.597656 5.539062 -32.375 5.25 -32.875 C 4.96875 -33.382812 4.582031 -33.734375 4.09375 -33.921875 C 3.601562 -34.109375 3.050781 -34.203125 2.4375 -34.203125 L 1.578125 -34.203125 L 1.578125 -36.296875 L 14.640625 -36.296875 L 14.640625 -34.203125 L 13.71875 -34.203125 C 13.113281 -34.203125 12.5625 -34.109375 12.0625 -33.921875 C 11.570312 -33.734375 11.191406 -33.382812 10.921875 -32.875 C 10.648438 -32.375 10.515625 -31.597656 10.515625 -30.546875 L 10.515625 -5.6875 C 10.515625 -4.675781 10.648438 -3.914062 10.921875 -3.40625 C 11.191406 -2.894531 11.582031 -2.546875 12.09375 -2.359375 C 12.601562 -2.171875 13.144531 -2.078125 13.71875 -2.078125 L 14.640625 -2.078125 L 14.640625 0 Z M 1.578125 0 "/></g></g><g style="fill:#ffffff;fill-opacity:1;"><g transform="translate(115.760476, 67.038732)"><path style="stroke:none" d="M 1.578125 0 L 1.578125 -2.078125 L 2.1875 -2.078125 C 2.894531 -2.078125 3.507812 -2.160156 4.03125 -2.328125 C 4.5625 -2.503906 4.96875 -2.851562 5.25 -3.375 C 5.539062 -3.90625 5.6875 -4.695312 5.6875 -5.75 L 5.6875 -30.75 C 5.6875 -31.769531 5.539062 -32.523438 5.25 -33.015625 C 4.96875 -33.503906 4.570312 -33.820312 4.0625 -33.96875 C 3.550781 -34.125 2.957031 -34.203125 2.28125 -34.203125 L 1.578125 -34.203125 L 1.578125 -36.296875 L 9.96875 -36.296875 L 25.3125 -7.78125 L 25.3125 -30.75 C 25.3125 -31.726562 25.15625 -32.460938 24.84375 -32.953125 C 24.539062 -33.453125 24.132812 -33.785156 23.625 -33.953125 C 23.125 -34.117188 22.550781 -34.203125 21.90625 -34.203125 L 21.203125 -34.203125 L 21.203125 -36.296875 L 32.171875 -36.296875 L 32.171875 -34.203125 L 31.40625 -34.203125 C 30.769531 -34.203125 30.195312 -34.109375 29.6875 -33.921875 C 29.175781 -33.734375 28.773438 -33.382812 28.484375 -32.875 C 28.203125 -32.375 28.0625 -31.597656 28.0625 -30.546875 L 28.0625 0 L 24.703125 0 L 8.4375 -29.9375 L 8.4375 -5.75 C 8.4375 -4.695312 8.570312 -3.90625 8.84375 -3.375 C 9.113281 -2.851562 9.507812 -2.503906 10.03125 -2.328125 C 10.5625 -2.160156 11.148438 -2.078125 11.796875 -2.078125 L 12.546875 -2.078125 L 12.546875 0 Z M 1.578125 0 "/></g></g><g style="fill:#ffffff;fill-opacity:1;"><g transform="translate(148.999552, 67.038732)"><path style="stroke:none" d="M 1.578125 0 L 1.578125 -2.078125 L 2.390625 -2.078125 C 3.035156 -2.078125 3.601562 -2.160156 4.09375 -2.328125 C 4.582031 -2.503906 4.96875 -2.835938 5.25 -3.328125 C 5.539062 -3.816406 5.6875 -4.535156 5.6875 -5.484375 L 5.6875 -30.546875 C 5.6875 -31.628906 5.539062 -32.425781 5.25 -32.9375 C 4.96875 -33.445312 4.582031 -33.785156 4.09375 -33.953125 C 3.601562 -34.117188 3.035156 -34.203125 2.390625 -34.203125 L 1.578125 -34.203125 L 1.578125 -36.296875 L 23.84375 -36.296875 L 24.046875 -27.453125 L 21.65625 -27.453125 L 21.40625 -29.578125 C 21.363281 -30.328125 21.207031 -31.019531 20.9375 -31.65625 C 20.664062 -32.300781 20.257812 -32.816406 19.71875 -33.203125 C 19.175781 -33.597656 18.46875 -33.796875 17.59375 -33.796875 L 10.515625 -33.796875 L 10.515625 -20.234375 L 20.890625 -20.234375 L 20.890625 -17.796875 L 10.515625 -17.796875 L 10.515625 -2.484375 L 18.65625 -2.484375 C 19.601562 -2.484375 20.351562 -2.675781 20.90625 -3.0625 C 21.46875 -3.457031 21.898438 -3.976562 22.203125 -4.625 C 22.515625 -5.269531 22.722656 -5.960938 22.828125 -6.703125 L 23.078125 -8.84375 L 25.515625 -8.84375 L 25.203125 0 Z M 1.578125 0 "/></g></g><g style="fill:#ffffff;fill-opacity:1;"><g transform="translate(176.241363, 67.038732)"><path style="stroke:none" d="M 11.328125 0.515625 C 9.742188 0.515625 8.363281 0.34375 7.1875 0 C 6.019531 -0.34375 5.054688 -0.828125 4.296875 -1.453125 C 3.535156 -2.078125 2.96875 -2.8125 2.59375 -3.65625 C 2.21875 -4.507812 2.03125 -5.441406 2.03125 -6.453125 C 2.03125 -7.160156 2.171875 -7.773438 2.453125 -8.296875 C 2.742188 -8.828125 3.132812 -9.238281 3.625 -9.53125 C 4.125 -9.820312 4.726562 -9.96875 5.4375 -9.96875 C 5.507812 -8.4375 5.789062 -7.050781 6.28125 -5.8125 C 6.769531 -4.582031 7.472656 -3.617188 8.390625 -2.921875 C 9.304688 -2.222656 10.40625 -1.875 11.6875 -1.875 C 13.550781 -1.875 14.988281 -2.425781 16 -3.53125 C 17.019531 -4.632812 17.53125 -6.1875 17.53125 -8.1875 C 17.53125 -9.570312 17.285156 -10.726562 16.796875 -11.65625 C 16.304688 -12.59375 15.550781 -13.441406 14.53125 -14.203125 C 13.519531 -14.960938 12.179688 -15.75 10.515625 -16.5625 C 8.785156 -17.476562 7.34375 -18.441406 6.1875 -19.453125 C 5.039062 -20.472656 4.1875 -21.648438 3.625 -22.984375 C 3.070312 -24.328125 2.796875 -25.929688 2.796875 -27.796875 C 2.796875 -29.628906 3.21875 -31.210938 4.0625 -32.546875 C 4.914062 -33.890625 6.0625 -34.929688 7.5 -35.671875 C 8.9375 -36.421875 10.570312 -36.796875 12.40625 -36.796875 C 14.195312 -36.796875 15.710938 -36.515625 16.953125 -35.953125 C 18.191406 -35.398438 19.128906 -34.691406 19.765625 -33.828125 C 20.410156 -32.960938 20.734375 -32.039062 20.734375 -31.0625 C 20.734375 -29.96875 20.421875 -29.164062 19.796875 -28.65625 C 19.171875 -28.15625 18.265625 -27.90625 17.078125 -27.90625 C 17.078125 -29.019531 16.898438 -30.066406 16.546875 -31.046875 C 16.191406 -32.035156 15.640625 -32.832031 14.890625 -33.4375 C 14.148438 -34.050781 13.1875 -34.359375 12 -34.359375 C 10.375 -34.359375 9.128906 -33.820312 8.265625 -32.75 C 7.398438 -31.6875 6.96875 -30.238281 6.96875 -28.40625 C 6.96875 -27.15625 7.171875 -26.082031 7.578125 -25.1875 C 7.984375 -24.289062 8.675781 -23.476562 9.65625 -22.75 C 10.632812 -22.019531 11.972656 -21.210938 13.671875 -20.328125 C 15.429688 -19.484375 16.910156 -18.566406 18.109375 -17.578125 C 19.316406 -16.597656 20.234375 -15.472656 20.859375 -14.203125 C 21.492188 -12.929688 21.8125 -11.382812 21.8125 -9.5625 C 21.8125 -7.382812 21.367188 -5.554688 20.484375 -4.078125 C 19.597656 -2.609375 18.367188 -1.472656 16.796875 -0.671875 C 15.222656 0.117188 13.398438 0.515625 11.328125 0.515625 Z M 11.328125 0.515625 "/></g></g><g style="fill:#ffffff;fill-opacity:1;"><g transform="translate(200.027128, 67.038732)"><path style="stroke:none" d="M 11.328125 0.515625 C 9.742188 0.515625 8.363281 0.34375 7.1875 0 C 6.019531 -0.34375 5.054688 -0.828125 4.296875 -1.453125 C 3.535156 -2.078125 2.96875 -2.8125 2.59375 -3.65625 C 2.21875 -4.507812 2.03125 -5.441406 2.03125 -6.453125 C 2.03125 -7.160156 2.171875 -7.773438 2.453125 -8.296875 C 2.742188 -8.828125 3.132812 -9.238281 3.625 -9.53125 C 4.125 -9.820312 4.726562 -9.96875 5.4375 -9.96875 C 5.507812 -8.4375 5.789062 -7.050781 6.28125 -5.8125 C 6.769531 -4.582031 7.472656 -3.617188 8.390625 -2.921875 C 9.304688 -2.222656 10.40625 -1.875 11.6875 -1.875 C 13.550781 -1.875 14.988281 -2.425781 16 -3.53125 C 17.019531 -4.632812 17.53125 -6.1875 17.53125 -8.1875 C 17.53125 -9.570312 17.285156 -10.726562 16.796875 -11.65625 C 16.304688 -12.59375 15.550781 -13.441406 14.53125 -14.203125 C 13.519531 -14.960938 12.179688 -15.75 10.515625 -16.5625 C 8.785156 -17.476562 7.34375 -18.441406 6.1875 -19.453125 C 5.039062 -20.472656 4.1875 -21.648438 3.625 -22.984375 C 3.070312 -24.328125 2.796875 -25.929688 2.796875 -27.796875 C 2.796875 -29.628906 3.21875 -31.210938 4.0625 -32.546875 C 4.914062 -33.890625 6.0625 -34.929688 7.5 -35.671875 C 8.9375 -36.421875 10.570312 -36.796875 12.40625 -36.796875 C 14.195312 -36.796875 15.710938 -36.515625 16.953125 -35.953125 C 18.191406 -35.398438 19.128906 -34.691406 19.765625 -33.828125 C 20.410156 -32.960938 20.734375 -32.039062 20.734375 -31.0625 C 20.734375 -29.96875 20.421875 -29.164062 19.796875 -28.65625 C 19.171875 -28.15625 18.265625 -27.90625 17.078125 -27.90625 C 17.078125 -29.019531 16.898438 -30.066406 16.546875 -31.046875 C 16.191406 -32.035156 15.640625 -32.832031 14.890625 -33.4375 C 14.148438 -34.050781 13.1875 -34.359375 12 -34.359375 C 10.375 -34.359375 9.128906 -33.820312 8.265625 -32.75 C 7.398438 -31.6875 6.96875 -30.238281 6.96875 -28.40625 C 6.96875 -27.15625 7.171875 -26.082031 7.578125 -25.1875 C 7.984375 -24.289062 8.675781 -23.476562 9.65625 -22.75 C 10.632812 -22.019531 11.972656 -21.210938 13.671875 -20.328125 C 15.429688 -19.484375 16.910156 -18.566406 18.109375 -17.578125 C 19.316406 -16.597656 20.234375 -15.472656 20.859375 -14.203125 C 21.492188 -12.929688 21.8125 -11.382812 21.8125 -9.5625 C 21.8125 -7.382812 21.367188 -5.554688 20.484375 -4.078125 C 19.597656 -2.609375 18.367188 -1.472656 16.796875 -0.671875 C 15.222656 0.117188 13.398438 0.515625 11.328125 0.515625 Z M 11.328125 0.515625 "/></g></g><g style="fill:#ffffff;fill-opacity:1;"><g transform="translate(223.812893, 67.038732)"><path style="stroke:none" d=""/></g></g><g style="fill:#ffffff;fill-opacity:1;"><g transform="translate(235.654941, 67.038732)"><path style="stroke:none" d="M 1.578125 0 L 1.578125 -2.078125 L 2.4375 -2.078125 C 3.050781 -2.078125 3.601562 -2.160156 4.09375 -2.328125 C 4.582031 -2.503906 4.96875 -2.851562 5.25 -3.375 C 5.539062 -3.90625 5.6875 -4.660156 5.6875 -5.640625 L 5.6875 -30.59375 C 5.6875 -31.644531 5.539062 -32.425781 5.25 -32.9375 C 4.96875 -33.445312 4.570312 -33.785156 4.0625 -33.953125 C 3.550781 -34.117188 2.976562 -34.203125 2.34375 -34.203125 L 1.578125 -34.203125 L 1.578125 -36.296875 L 14.640625 -36.296875 L 14.640625 -34.203125 L 13.828125 -34.203125 C 13.148438 -34.203125 12.5625 -34.117188 12.0625 -33.953125 C 11.570312 -33.785156 11.191406 -33.453125 10.921875 -32.953125 C 10.648438 -32.460938 10.515625 -31.726562 10.515625 -30.75 L 10.515625 -2.484375 L 19.015625 -2.484375 C 19.859375 -2.484375 20.539062 -2.6875 21.0625 -3.09375 C 21.59375 -3.5 22 -4.050781 22.28125 -4.75 C 22.570312 -5.445312 22.769531 -6.21875 22.875 -7.0625 L 23.328125 -10.875 L 25.515625 -10.875 L 25.203125 0 Z M 1.578125 0 "/></g></g><g style="fill:#ffffff;fill-opacity:1;"><g transform="translate(262.845941, 67.038732)"><path style="stroke:none" d="M 16.265625 0.515625 C 13.148438 0.515625 10.566406 -0.265625 8.515625 -1.828125 C 6.460938 -3.390625 4.9375 -5.578125 3.9375 -8.390625 C 2.9375 -11.203125 2.4375 -14.488281 2.4375 -18.25 C 2.4375 -22.007812 2.9375 -25.273438 3.9375 -28.046875 C 4.9375 -30.828125 6.46875 -32.988281 8.53125 -34.53125 C 10.601562 -36.070312 13.195312 -36.84375 16.3125 -36.84375 C 19.257812 -36.84375 21.757812 -36.070312 23.8125 -34.53125 C 25.863281 -32.988281 27.421875 -30.820312 28.484375 -28.03125 C 29.554688 -25.238281 30.09375 -21.960938 30.09375 -18.203125 C 30.09375 -14.429688 29.554688 -11.148438 28.484375 -8.359375 C 27.421875 -5.566406 25.863281 -3.390625 23.8125 -1.828125 C 21.757812 -0.265625 19.242188 0.515625 16.265625 0.515625 Z M 16.265625 -2.1875 C 18.367188 -2.1875 20.054688 -2.820312 21.328125 -4.09375 C 22.597656 -5.363281 23.503906 -7.191406 24.046875 -9.578125 C 24.585938 -11.972656 24.859375 -14.847656 24.859375 -18.203125 C 24.859375 -21.585938 24.578125 -24.460938 24.015625 -26.828125 C 23.453125 -29.203125 22.550781 -31.015625 21.3125 -32.265625 C 20.082031 -33.523438 18.414062 -34.15625 16.3125 -34.15625 C 13.226562 -34.15625 11.015625 -32.753906 9.671875 -29.953125 C 8.335938 -27.160156 7.671875 -23.242188 7.671875 -18.203125 C 7.671875 -14.847656 7.957031 -11.972656 8.53125 -9.578125 C 9.113281 -7.191406 10.039062 -5.363281 11.3125 -4.09375 C 12.582031 -2.820312 14.234375 -2.1875 16.265625 -2.1875 Z M 16.265625 -2.1875 "/></g></g><g style="fill:#ffffff;fill-opacity:1;"><g transform="translate(295.373481, 67.038732)"><path style="stroke:none" d="M 17.59375 0.515625 C 14.195312 0.515625 11.375 -0.265625 9.125 -1.828125 C 6.875 -3.390625 5.195312 -5.566406 4.09375 -8.359375 C 2.988281 -11.148438 2.4375 -14.429688 2.4375 -18.203125 C 2.4375 -21.859375 3.007812 -25.082031 4.15625 -27.875 C 5.3125 -30.675781 7.035156 -32.863281 9.328125 -34.4375 C 11.617188 -36.007812 14.441406 -36.796875 17.796875 -36.796875 C 19.921875 -36.796875 21.703125 -36.550781 23.140625 -36.0625 C 24.585938 -35.570312 25.691406 -34.898438 26.453125 -34.046875 C 27.210938 -33.203125 27.59375 -32.238281 27.59375 -31.15625 C 27.59375 -30.070312 27.21875 -29.207031 26.46875 -28.5625 C 25.726562 -27.914062 24.75 -27.59375 23.53125 -27.59375 C 23.53125 -28.644531 23.332031 -29.671875 22.9375 -30.671875 C 22.550781 -31.671875 21.925781 -32.5 21.0625 -33.15625 C 20.195312 -33.820312 19.054688 -34.15625 17.640625 -34.15625 C 15.335938 -34.15625 13.457031 -33.5625 12 -32.375 C 10.539062 -31.1875 9.460938 -29.40625 8.765625 -27.03125 C 8.066406 -24.664062 7.71875 -21.722656 7.71875 -18.203125 C 7.71875 -14.773438 8.054688 -11.875 8.734375 -9.5 C 9.421875 -7.132812 10.535156 -5.332031 12.078125 -4.09375 C 13.617188 -2.851562 15.675781 -2.234375 18.25 -2.234375 C 19.03125 -2.234375 19.789062 -2.285156 20.53125 -2.390625 C 21.28125 -2.492188 21.941406 -2.660156 22.515625 -2.890625 L 22.515625 -11.234375 C 22.515625 -12.253906 22.378906 -13.007812 22.109375 -13.5 C 21.835938 -13.988281 21.445312 -14.300781 20.9375 -14.4375 C 20.425781 -14.570312 19.851562 -14.640625 19.21875 -14.640625 L 18.859375 -14.640625 L 18.859375 -16.71875 L 30.390625 -16.71875 L 30.390625 -14.640625 L 30.09375 -14.640625 C 29.507812 -14.640625 29.015625 -14.5625 28.609375 -14.40625 C 28.203125 -14.257812 27.890625 -13.929688 27.671875 -13.421875 C 27.453125 -12.910156 27.34375 -12.113281 27.34375 -11.03125 L 27.34375 -1.78125 C 25.851562 -1.03125 24.328125 -0.457031 22.765625 -0.0625 C 21.210938 0.320312 19.488281 0.515625 17.59375 0.515625 Z M 17.59375 0.515625 "/></g></g><g style="fill:#ffffff;fill-opacity:1;"><g transform="translate(326.732053, 67.038732)"><path style="stroke:none" d="M 16.265625 0.515625 C 13.148438 0.515625 10.566406 -0.265625 8.515625 -1.828125 C 6.460938 -3.390625 4.9375 -5.578125 3.9375 -8.390625 C 2.9375 -11.203125 2.4375 -14.488281 2.4375 -18.25 C 2.4375 -22.007812 2.9375 -25.273438 3.9375 -28.046875 C 4.9375 -30.828125 6.46875 -32.988281 8.53125 -34.53125 C 10.601562 -36.070312 13.195312 -36.84375 16.3125 -36.84375 C 19.257812 -36.84375 21.757812 -36.070312 23.8125 -34.53125 C 25.863281 -32.988281 27.421875 -30.820312 28.484375 -28.03125 C 29.554688 -25.238281 30.09375 -21.960938 30.09375 -18.203125 C 30.09375 -14.429688 29.554688 -11.148438 28.484375 -8.359375 C 27.421875 -5.566406 25.863281 -3.390625 23.8125 -1.828125 C 21.757812 -0.265625 19.242188 0.515625 16.265625 0.515625 Z M 16.265625 -2.1875 C 18.367188 -2.1875 20.054688 -2.820312 21.328125 -4.09375 C 22.597656 -5.363281 23.503906 -7.191406 24.046875 -9.578125 C 24.585938 -11.972656 24.859375 -14.847656 24.859375 -18.203125 C 24.859375 -21.585938 24.578125 -24.460938 24.015625 -26.828125 C 23.453125 -29.203125 22.550781 -31.015625 21.3125 -32.265625 C 20.082031 -33.523438 18.414062 -34.15625 16.3125 -34.15625 C 13.226562 -34.15625 11.015625 -32.753906 9.671875 -29.953125 C 8.335938 -27.160156 7.671875 -23.242188 7.671875 -18.203125 C 7.671875 -14.847656 7.957031 -11.972656 8.53125 -9.578125 C 9.113281 -7.191406 10.039062 -5.363281 11.3125 -4.09375 C 12.582031 -2.820312 14.234375 -2.1875 16.265625 -2.1875 Z M 16.265625 -2.1875 "/></g></g><g style="fill:#ff3131;fill-opacity:1;"><g transform="translate(57.820313, 137.538727)"><path style="stroke:none" d="M 1.578125 0 L 1.578125 -2.078125 L 2.1875 -2.078125 C 2.894531 -2.078125 3.507812 -2.160156 4.03125 -2.328125 C 4.5625 -2.503906 4.96875 -2.851562 5.25 -3.375 C 5.539062 -3.90625 5.6875 -4.695312 5.6875 -5.75 L 5.6875 -30.75 C 5.6875 -31.769531 5.539062 -32.523438 5.25 -33.015625 C 4.96875 -33.503906 4.570312 -33.820312 4.0625 -33.96875 C 3.550781 -34.125 2.957031 -34.203125 2.28125 -34.203125 L 1.578125 -34.203125 L 1.578125 -36.296875 L 9.96875 -36.296875 L 25.3125 -7.78125 L 25.3125 -30.75 C 25.3125 -31.726562 25.15625 -32.460938 24.84375 -32.953125 C 24.539062 -33.453125 24.132812 -33.785156 23.625 -33.953125 C 23.125 -34.117188 22.550781 -34.203125 21.90625 -34.203125 L 21.203125 -34.203125 L 21.203125 -36.296875 L 32.171875 -36.296875 L 32.171875 -34.203125 L 31.40625 -34.203125 C 30.769531 -34.203125 30.195312 -34.109375 29.6875 -33.921875 C 29.175781 -33.734375 28.773438 -33.382812 28.484375 -32.875 C 28.203125 -32.375 28.0625 -31.597656 28.0625 -30.546875 L 28.0625 0 L 24.703125 0 L 8.4375 -29.9375 L 8.4375 -5.75 C 8.4375 -4.695312 8.570312 -3.90625 8.84375 -3.375 C 9.113281 -2.851562 9.507812 -2.503906 10.03125 -2.328125 C 10.5625 -2.160156 11.148438 -2.078125 11.796875 -2.078125 L 12.546875 -2.078125 L 12.546875 0 Z M 1.578125 0 "/></g></g><g style="fill:#ff3131;fill-opacity:1;"><g transform="translate(91.059389, 137.538727)"><path style="stroke:none" d="M 16.265625 0.515625 C 13.148438 0.515625 10.566406 -0.265625 8.515625 -1.828125 C 6.460938 -3.390625 4.9375 -5.578125 3.9375 -8.390625 C 2.9375 -11.203125 2.4375 -14.488281 2.4375 -18.25 C 2.4375 -22.007812 2.9375 -25.273438 3.9375 -28.046875 C 4.9375 -30.828125 6.46875 -32.988281 8.53125 -34.53125 C 10.601562 -36.070312 13.195312 -36.84375 16.3125 -36.84375 C 19.257812 -36.84375 21.757812 -36.070312 23.8125 -34.53125 C 25.863281 -32.988281 27.421875 -30.820312 28.484375 -28.03125 C 29.554688 -25.238281 30.09375 -21.960938 30.09375 -18.203125 C 30.09375 -14.429688 29.554688 -11.148438 28.484375 -8.359375 C 27.421875 -5.566406 25.863281 -3.390625 23.8125 -1.828125 C 21.757812 -0.265625 19.242188 0.515625 16.265625 0.515625 Z M 16.265625 -2.1875 C 18.367188 -2.1875 20.054688 -2.820312 21.328125 -4.09375 C 22.597656 -5.363281 23.503906 -7.191406 24.046875 -9.578125 C 24.585938 -11.972656 24.859375 -14.847656 24.859375 -18.203125 C 24.859375 -21.585938 24.578125 -24.460938 24.015625 -26.828125 C 23.453125 -29.203125 22.550781 -31.015625 21.3125 -32.265625 C 20.082031 -33.523438 18.414062 -34.15625 16.3125 -34.15625 C 13.226562 -34.15625 11.015625 -32.753906 9.671875 -29.953125 C 8.335938 -27.160156 7.671875 -23.242188 7.671875 -18.203125 C 7.671875 -14.847656 7.957031 -11.972656 8.53125 -9.578125 C 9.113281 -7.191406 10.039062 -5.363281 11.3125 -4.09375 C 12.582031 -2.820312 14.234375 -2.1875 16.265625 -2.1875 Z M 16.265625 -2.1875 "/></g></g><g style="fill:#ff3131;fill-opacity:1;"><g transform="translate(123.586929, 137.538727)"><path style="stroke:none" d="M 6.40625 0 L 6.40625 -2.078125 L 7.3125 -2.078125 C 7.957031 -2.078125 8.5625 -2.15625 9.125 -2.3125 C 9.6875 -2.46875 10.132812 -2.789062 10.46875 -3.28125 C 10.8125 -3.769531 10.984375 -4.503906 10.984375 -5.484375 L 10.984375 -33.796875 L 6.90625 -33.796875 C 5.6875 -33.796875 4.820312 -33.375 4.3125 -32.53125 C 3.8125 -31.6875 3.492188 -30.703125 3.359375 -29.578125 L 3.15625 -27.453125 L 0.8125 -27.453125 L 1.015625 -36.296875 L 25.875 -36.296875 L 26.078125 -27.453125 L 23.734375 -27.453125 L 23.484375 -29.578125 C 23.378906 -30.703125 23.070312 -31.6875 22.5625 -32.53125 C 22.0625 -33.375 21.164062 -33.796875 19.875 -33.796875 L 15.8125 -33.796875 L 15.8125 -5.75 C 15.8125 -4.695312 15.96875 -3.90625 16.28125 -3.375 C 16.601562 -2.851562 17.046875 -2.503906 17.609375 -2.328125 C 18.171875 -2.160156 18.789062 -2.078125 19.46875 -2.078125 L 20.375 -2.078125 L 20.375 0 Z M 6.40625 0 "/></g></g><g style="fill:#ff3131;fill-opacity:1;"><g transform="translate(150.523802, 137.538727)"><path style="stroke:none" d=""/></g></g><g style="fill:#ff3131;fill-opacity:1;"><g transform="translate(162.365862, 137.538727)"><path style="stroke:none" d="M 1.578125 0 L 1.578125 -2.078125 L 2.234375 -2.078125 C 2.941406 -2.078125 3.550781 -2.160156 4.0625 -2.328125 C 4.570312 -2.503906 4.96875 -2.828125 5.25 -3.296875 C 5.539062 -3.773438 5.6875 -4.503906 5.6875 -5.484375 L 5.6875 -30.75 C 5.6875 -31.726562 5.539062 -32.460938 5.25 -32.953125 C 4.96875 -33.453125 4.570312 -33.785156 4.0625 -33.953125 C 3.550781 -34.117188 2.992188 -34.203125 2.390625 -34.203125 L 1.578125 -34.203125 L 1.578125 -36.296875 L 23.78125 -36.296875 L 24.046875 -27.453125 L 21.65625 -27.453125 L 21.40625 -29.640625 C 21.300781 -30.722656 20.957031 -31.6875 20.375 -32.53125 C 19.800781 -33.375 18.851562 -33.796875 17.53125 -33.796875 L 10.515625 -33.796875 L 10.515625 -19.0625 L 20.9375 -19.0625 L 20.9375 -16.5625 L 10.515625 -16.5625 L 10.515625 -5.6875 C 10.515625 -4.675781 10.660156 -3.914062 10.953125 -3.40625 C 11.242188 -2.894531 11.664062 -2.546875 12.21875 -2.359375 C 12.78125 -2.171875 13.398438 -2.078125 14.078125 -2.078125 L 15.453125 -2.078125 L 15.453125 0 Z M 1.578125 0 "/></g></g><g style="fill:#ff3131;fill-opacity:1;"><g transform="translate(188.235424, 137.538727)"><path style="stroke:none" d="M 16.265625 0.515625 C 13.148438 0.515625 10.566406 -0.265625 8.515625 -1.828125 C 6.460938 -3.390625 4.9375 -5.578125 3.9375 -8.390625 C 2.9375 -11.203125 2.4375 -14.488281 2.4375 -18.25 C 2.4375 -22.007812 2.9375 -25.273438 3.9375 -28.046875 C 4.9375 -30.828125 6.46875 -32.988281 8.53125 -34.53125 C 10.601562 -36.070312 13.195312 -36.84375 16.3125 -36.84375 C 19.257812 -36.84375 21.757812 -36.070312 23.8125 -34.53125 C 25.863281 -32.988281 27.421875 -30.820312 28.484375 -28.03125 C 29.554688 -25.238281 30.09375 -21.960938 30.09375 -18.203125 C 30.09375 -14.429688 29.554688 -11.148438 28.484375 -8.359375 C 27.421875 -5.566406 25.863281 -3.390625 23.8125 -1.828125 C 21.757812 -0.265625 19.242188 0.515625 16.265625 0.515625 Z M 16.265625 -2.1875 C 18.367188 -2.1875 20.054688 -2.820312 21.328125 -4.09375 C 22.597656 -5.363281 23.503906 -7.191406 24.046875 -9.578125 C 24.585938 -11.972656 24.859375 -14.847656 24.859375 -18.203125 C 24.859375 -21.585938 24.578125 -24.460938 24.015625 -26.828125 C 23.453125 -29.203125 22.550781 -31.015625 21.3125 -32.265625 C 20.082031 -33.523438 18.414062 -34.15625 16.3125 -34.15625 C 13.226562 -34.15625 11.015625 -32.753906 9.671875 -29.953125 C 8.335938 -27.160156 7.671875 -23.242188 7.671875 -18.203125 C 7.671875 -14.847656 7.957031 -11.972656 8.53125 -9.578125 C 9.113281 -7.191406 10.039062 -5.363281 11.3125 -4.09375 C 12.582031 -2.820312 14.234375 -2.1875 16.265625 -2.1875 Z M 16.265625 -2.1875 "/></g></g><g style="fill:#ff3131;fill-opacity:1;"><g transform="translate(220.762964, 137.538727)"><path style="stroke:none" d="M 15.75 0.515625 C 13.519531 0.515625 11.570312 0.132812 9.90625 -0.625 C 8.25 -1.394531 6.976562 -2.625 6.09375 -4.3125 C 5.21875 -6.007812 4.78125 -8.234375 4.78125 -10.984375 L 4.78125 -30.75 C 4.78125 -31.769531 4.617188 -32.523438 4.296875 -33.015625 C 3.972656 -33.503906 3.546875 -33.820312 3.015625 -33.96875 C 2.492188 -34.125 1.910156 -34.203125 1.265625 -34.203125 L 0.65625 -34.203125 L 0.65625 -36.296875 L 13.671875 -36.296875 L 13.671875 -34.203125 L 13.109375 -34.203125 C 12.429688 -34.203125 11.828125 -34.117188 11.296875 -33.953125 C 10.773438 -33.785156 10.363281 -33.445312 10.0625 -32.9375 C 9.757812 -32.425781 9.609375 -31.628906 9.609375 -30.546875 L 9.609375 -10.671875 C 9.609375 -7.691406 10.257812 -5.582031 11.5625 -4.34375 C 12.863281 -3.101562 14.566406 -2.484375 16.671875 -2.484375 C 18.296875 -2.484375 19.625 -2.835938 20.65625 -3.546875 C 21.695312 -4.265625 22.476562 -5.222656 23 -6.421875 C 23.519531 -7.628906 23.78125 -8.992188 23.78125 -10.515625 L 23.78125 -30.75 C 23.78125 -31.769531 23.617188 -32.523438 23.296875 -33.015625 C 22.984375 -33.503906 22.570312 -33.820312 22.0625 -33.96875 C 21.550781 -34.125 20.957031 -34.203125 20.28125 -34.203125 L 19.71875 -34.203125 L 19.71875 -36.296875 L 30.65625 -36.296875 L 30.65625 -34.203125 L 30.09375 -34.203125 C 29.414062 -34.203125 28.804688 -34.117188 28.265625 -33.953125 C 27.722656 -33.785156 27.296875 -33.445312 26.984375 -32.9375 C 26.679688 -32.425781 26.53125 -31.628906 26.53125 -30.546875 L 26.53125 -10.421875 C 26.53125 -8.179688 26.128906 -6.25 25.328125 -4.625 C 24.535156 -3 23.332031 -1.734375 21.71875 -0.828125 C 20.113281 0.0664062 18.125 0.515625 15.75 0.515625 Z M 15.75 0.515625 "/></g></g><g style="fill:#ff3131;fill-opacity:1;"><g transform="translate(252.070713, 137.538727)"><path style="stroke:none" d="M 1.578125 0 L 1.578125 -2.078125 L 2.1875 -2.078125 C 2.894531 -2.078125 3.507812 -2.160156 4.03125 -2.328125 C 4.5625 -2.503906 4.96875 -2.851562 5.25 -3.375 C 5.539062 -3.90625 5.6875 -4.695312 5.6875 -5.75 L 5.6875 -30.75 C 5.6875 -31.769531 5.539062 -32.523438 5.25 -33.015625 C 4.96875 -33.503906 4.570312 -33.820312 4.0625 -33.96875 C 3.550781 -34.125 2.957031 -34.203125 2.28125 -34.203125 L 1.578125 -34.203125 L 1.578125 -36.296875 L 9.96875 -36.296875 L 25.3125 -7.78125 L 25.3125 -30.75 C 25.3125 -31.726562 25.15625 -32.460938 24.84375 -32.953125 C 24.539062 -33.453125 24.132812 -33.785156 23.625 -33.953125 C 23.125 -34.117188 22.550781 -34.203125 21.90625 -34.203125 L 21.203125 -34.203125 L 21.203125 -36.296875 L 32.171875 -36.296875 L 32.171875 -34.203125 L 31.40625 -34.203125 C 30.769531 -34.203125 30.195312 -34.109375 29.6875 -33.921875 C 29.175781 -33.734375 28.773438 -33.382812 28.484375 -32.875 C 28.203125 -32.375 28.0625 -31.597656 28.0625 -30.546875 L 28.0625 0 L 24.703125 0 L 8.4375 -29.9375 L 8.4375 -5.75 C 8.4375 -4.695312 8.570312 -3.90625 8.84375 -3.375 C 9.113281 -2.851562 9.507812 -2.503906 10.03125 -2.328125 C 10.5625 -2.160156 11.148438 -2.078125 11.796875 -2.078125 L 12.546875 -2.078125 L 12.546875 0 Z M 1.578125 0 "/></g></g><g style="fill:#ff3131;fill-opacity:1;"><g transform="translate(285.309801, 137.538727)"><path style="stroke:none" d="M 1.578125 0 L 1.578125 -2.078125 L 2.4375 -2.078125 C 3.082031 -2.078125 3.648438 -2.171875 4.140625 -2.359375 C 4.628906 -2.546875 5.007812 -2.898438 5.28125 -3.421875 C 5.550781 -3.953125 5.6875 -4.726562 5.6875 -5.75 L 5.6875 -30.75 C 5.6875 -31.726562 5.539062 -32.460938 5.25 -32.953125 C 4.96875 -33.453125 4.570312 -33.785156 4.0625 -33.953125 C 3.550781 -34.117188 2.976562 -34.203125 2.34375 -34.203125 L 1.578125 -34.203125 L 1.578125 -36.296875 L 15.046875 -36.296875 C 18.054688 -36.296875 20.628906 -35.582031 22.765625 -34.15625 C 24.898438 -32.726562 26.535156 -30.664062 27.671875 -27.96875 C 28.804688 -25.28125 29.375 -22.003906 29.375 -18.140625 C 29.375 -14.453125 28.835938 -11.242188 27.765625 -8.515625 C 26.703125 -5.785156 25.113281 -3.679688 23 -2.203125 C 20.882812 -0.734375 18.234375 0 15.046875 0 Z M 14.03125 -2.546875 C 16.300781 -2.546875 18.171875 -3.144531 19.640625 -4.34375 C 21.117188 -5.550781 22.238281 -7.3125 23 -9.625 C 23.757812 -11.945312 24.140625 -14.785156 24.140625 -18.140625 C 24.140625 -21.492188 23.765625 -24.335938 23.015625 -26.671875 C 22.273438 -29.015625 21.160156 -30.785156 19.671875 -31.984375 C 18.179688 -33.191406 16.316406 -33.796875 14.078125 -33.796875 L 10.515625 -33.796875 L 10.515625 -2.546875 Z M 14.03125 -2.546875 "/></g></g><g style="fill:#ffffff;fill-opacity:1;"><g transform="translate(17.94141, 208.038723)"><path style="stroke:none" d="M 1.171875 -12 L 1.171875 -15.703125 L 13.015625 -15.703125 L 13.015625 -12 Z M 1.171875 -12 "/></g></g><g style="fill:#ffffff;fill-opacity:1;"><g transform="translate(32.070559, 208.038723)"><path style="stroke:none" d="M 1.171875 -12 L 1.171875 -15.703125 L 13.015625 -15.703125 L 13.015625 -12 Z M 1.171875 -12 "/></g></g><g style="fill:#ffffff;fill-opacity:1;"><g transform="translate(46.199708, 208.038723)"><path style="stroke:none" d="M 1.171875 -12 L 1.171875 -15.703125 L 13.015625 -15.703125 L 13.015625 -12 Z M 1.171875 -12 "/></g></g><g style="fill:#ffffff;fill-opacity:1;"><g transform="translate(60.328858, 208.038723)"><path style="stroke:none" d="M 1.171875 -12 L 1.171875 -15.703125 L 13.015625 -15.703125 L 13.015625 -12 Z M 1.171875 -12 "/></g></g><g style="fill:#ffffff;fill-opacity:1;"><g transform="translate(74.458007, 208.038723)"><path style="stroke:none" d="M 1.171875 -12 L 1.171875 -15.703125 L 13.015625 -15.703125 L 13.015625 -12 Z M 1.171875 -12 "/></g></g><g style="fill:#ffffff;fill-opacity:1;"><g transform="translate(88.587156, 208.038723)"><path style="stroke:none" d="M 1.171875 -12 L 1.171875 -15.703125 L 13.015625 -15.703125 L 13.015625 -12 Z M 1.171875 -12 "/></g></g><g style="fill:#ffffff;fill-opacity:1;"><g transform="translate(102.716306, 208.038723)"><path style="stroke:none" d="M 1.171875 -12 L 1.171875 -15.703125 L 13.015625 -15.703125 L 13.015625 -12 Z M 1.171875 -12 "/></g></g><g style="fill:#ffffff;fill-opacity:1;"><g transform="translate(116.845455, 208.038723)"><path style="stroke:none" d="M 1.171875 -12 L 1.171875 -15.703125 L 13.015625 -15.703125 L 13.015625 -12 Z M 1.171875 -12 "/></g></g><g style="fill:#ffffff;fill-opacity:1;"><g transform="translate(130.974604, 208.038723)"><path style="stroke:none" d="M 1.171875 -12 L 1.171875 -15.703125 L 13.015625 -15.703125 L 13.015625 -12 Z M 1.171875 -12 "/></g></g><g style="fill:#ffffff;fill-opacity:1;"><g transform="translate(145.103754, 208.038723)"><path style="stroke:none" d="M 1.171875 -12 L 1.171875 -15.703125 L 13.015625 -15.703125 L 13.015625 -12 Z M 1.171875 -12 "/></g></g><g style="fill:#ffffff;fill-opacity:1;"><g transform="translate(159.232903, 208.038723)"><path style="stroke:none" d="M 1.171875 -12 L 1.171875 -15.703125 L 13.015625 -15.703125 L 13.015625 -12 Z M 1.171875 -12 "/></g></g><g style="fill:#ffffff;fill-opacity:1;"><g transform="translate(173.362052, 208.038723)"><path style="stroke:none" d="M 1.171875 -12 L 1.171875 -15.703125 L 13.015625 -15.703125 L 13.015625 -12 Z M 1.171875 -12 "/></g></g><g style="fill:#ffffff;fill-opacity:1;"><g transform="translate(187.491201, 208.038723)"><path style="stroke:none" d="M 1.171875 -12 L 1.171875 -15.703125 L 13.015625 -15.703125 L 13.015625 -12 Z M 1.171875 -12 "/></g></g><g style="fill:#ffffff;fill-opacity:1;"><g transform="translate(201.620351, 208.038723)"><path style="stroke:none" d="M 1.171875 -12 L 1.171875 -15.703125 L 13.015625 -15.703125 L 13.015625 -12 Z M 1.171875 -12 "/></g></g><g style="fill:#ffffff;fill-opacity:1;"><g transform="translate(215.7495, 208.038723)"><path style="stroke:none" d="M 1.171875 -12 L 1.171875 -15.703125 L 13.015625 -15.703125 L 13.015625 -12 Z M 1.171875 -12 "/></g></g><g style="fill:#ffffff;fill-opacity:1;"><g transform="translate(229.878649, 208.038723)"><path style="stroke:none" d="M 1.171875 -12 L 1.171875 -15.703125 L 13.015625 -15.703125 L 13.015625 -12 Z M 1.171875 -12 "/></g></g><g style="fill:#ffffff;fill-opacity:1;"><g transform="translate(244.007799, 208.038723)"><path style="stroke:none" d="M 1.171875 -12 L 1.171875 -15.703125 L 13.015625 -15.703125 L 13.015625 -12 Z M 1.171875 -12 "/></g></g><g style="fill:#ffffff;fill-opacity:1;"><g transform="translate(258.136948, 208.038723)"><path style="stroke:none" d="M 1.171875 -12 L 1.171875 -15.703125 L 13.015625 -15.703125 L 13.015625 -12 Z M 1.171875 -12 "/></g></g><g style="fill:#ffffff;fill-opacity:1;"><g transform="translate(272.266097, 208.038723)"><path style="stroke:none" d="M 1.171875 -12 L 1.171875 -15.703125 L 13.015625 -15.703125 L 13.015625 -12 Z M 1.171875 -12 "/></g></g><g style="fill:#ffffff;fill-opacity:1;"><g transform="translate(286.395247, 208.038723)"><path style="stroke:none" d="M 1.171875 -12 L 1.171875 -15.703125 L 13.015625 -15.703125 L 13.015625 -12 Z M 1.171875 -12 "/></g></g><g style="fill:#ffffff;fill-opacity:1;"><g transform="translate(300.524396, 208.038723)"><path style="stroke:none" d="M 1.171875 -12 L 1.171875 -15.703125 L 13.015625 -15.703125 L 13.015625 -12 Z M 1.171875 -12 "/></g></g><g style="fill:#ffffff;fill-opacity:1;"><g transform="translate(314.653545, 208.038723)"><path style="stroke:none" d="M 1.171875 -12 L 1.171875 -15.703125 L 13.015625 -15.703125 L 13.015625 -12 Z M 1.171875 -12 "/></g></g><g style="fill:#ffffff;fill-opacity:1;"><g transform="translate(328.782695, 208.038723)"><path style="stroke:none" d="M 1.171875 -12 L 1.171875 -15.703125 L 13.015625 -15.703125 L 13.015625 -12 Z M 1.171875 -12 "/></g></g><g style="fill:#ffffff;fill-opacity:1;"><g transform="translate(342.911844, 208.038723)"><path style="stroke:none" d="M 1.171875 -12 L 1.171875 -15.703125 L 13.015625 -15.703125 L 13.015625 -12 Z M 1.171875 -12 "/></g></g><g style="fill:#ffffff;fill-opacity:1;"><g transform="translate(20.742191, 278.538718)"><path style="stroke:none" d="M 1.578125 0 L 1.578125 -2.078125 L 2.28125 -2.078125 C 2.925781 -2.078125 3.507812 -2.160156 4.03125 -2.328125 C 4.5625 -2.503906 4.96875 -2.851562 5.25 -3.375 C 5.539062 -3.90625 5.6875 -4.695312 5.6875 -5.75 L 5.6875 -30.75 C 5.6875 -31.769531 5.535156 -32.523438 5.234375 -33.015625 C 4.929688 -33.503906 4.53125 -33.820312 4.03125 -33.96875 C 3.539062 -34.125 2.976562 -34.203125 2.34375 -34.203125 L 1.578125 -34.203125 L 1.578125 -36.296875 L 14.078125 -36.296875 C 17.835938 -36.296875 20.609375 -35.363281 22.390625 -33.5 C 24.171875 -31.632812 25.0625 -29.023438 25.0625 -25.671875 C 25.0625 -24.140625 24.847656 -22.6875 24.421875 -21.3125 C 23.992188 -19.945312 23.3125 -18.710938 22.375 -17.609375 C 21.445312 -16.503906 20.222656 -15.644531 18.703125 -15.03125 C 17.179688 -14.425781 15.316406 -14.125 13.109375 -14.125 L 10.515625 -14.125 L 10.515625 -5.484375 C 10.515625 -4.503906 10.675781 -3.769531 11 -3.28125 C 11.320312 -2.789062 11.742188 -2.46875 12.265625 -2.3125 C 12.796875 -2.15625 13.367188 -2.078125 13.984375 -2.078125 L 15.296875 -2.078125 L 15.296875 0 Z M 12.703125 -16.46875 C 13.992188 -16.46875 15.097656 -16.628906 16.015625 -16.953125 C 16.929688 -17.273438 17.675781 -17.800781 18.25 -18.53125 C 18.820312 -19.257812 19.25 -20.191406 19.53125 -21.328125 C 19.820312 -22.460938 19.96875 -23.84375 19.96875 -25.46875 C 19.96875 -28.3125 19.457031 -30.425781 18.4375 -31.8125 C 17.425781 -33.207031 15.738281 -33.90625 13.375 -33.90625 L 10.515625 -33.90625 L 10.515625 -16.46875 Z M 12.703125 -16.46875 "/></g></g><g style="fill:#ffffff;fill-opacity:1;"><g transform="translate(47.221643, 278.538718)"><path style="stroke:none" d="M 1.578125 0 L 1.578125 -2.078125 L 2.4375 -2.078125 C 3.050781 -2.078125 3.601562 -2.160156 4.09375 -2.328125 C 4.582031 -2.503906 4.96875 -2.851562 5.25 -3.375 C 5.539062 -3.90625 5.6875 -4.660156 5.6875 -5.640625 L 5.6875 -30.59375 C 5.6875 -31.644531 5.539062 -32.425781 5.25 -32.9375 C 4.96875 -33.445312 4.570312 -33.785156 4.0625 -33.953125 C 3.550781 -34.117188 2.976562 -34.203125 2.34375 -34.203125 L 1.578125 -34.203125 L 1.578125 -36.296875 L 14.640625 -36.296875 L 14.640625 -34.203125 L 13.828125 -34.203125 C 13.148438 -34.203125 12.5625 -34.117188 12.0625 -33.953125 C 11.570312 -33.785156 11.191406 -33.453125 10.921875 -32.953125 C 10.648438 -32.460938 10.515625 -31.726562 10.515625 -30.75 L 10.515625 -2.484375 L 19.015625 -2.484375 C 19.859375 -2.484375 20.539062 -2.6875 21.0625 -3.09375 C 21.59375 -3.5 22 -4.050781 22.28125 -4.75 C 22.570312 -5.445312 22.769531 -6.21875 22.875 -7.0625 L 23.328125 -10.875 L 25.515625 -10.875 L 25.203125 0 Z M 1.578125 0 "/></g></g><g style="fill:#ffffff;fill-opacity:1;"><g transform="translate(74.412632, 278.538718)"><path style="stroke:none" d="M 1.578125 0 L 1.578125 -2.078125 L 2.390625 -2.078125 C 3.035156 -2.078125 3.601562 -2.160156 4.09375 -2.328125 C 4.582031 -2.503906 4.96875 -2.835938 5.25 -3.328125 C 5.539062 -3.816406 5.6875 -4.535156 5.6875 -5.484375 L 5.6875 -30.546875 C 5.6875 -31.628906 5.539062 -32.425781 5.25 -32.9375 C 4.96875 -33.445312 4.582031 -33.785156 4.09375 -33.953125 C 3.601562 -34.117188 3.035156 -34.203125 2.390625 -34.203125 L 1.578125 -34.203125 L 1.578125 -36.296875 L 23.84375 -36.296875 L 24.046875 -27.453125 L 21.65625 -27.453125 L 21.40625 -29.578125 C 21.363281 -30.328125 21.207031 -31.019531 20.9375 -31.65625 C 20.664062 -32.300781 20.257812 -32.816406 19.71875 -33.203125 C 19.175781 -33.597656 18.46875 -33.796875 17.59375 -33.796875 L 10.515625 -33.796875 L 10.515625 -20.234375 L 20.890625 -20.234375 L 20.890625 -17.796875 L 10.515625 -17.796875 L 10.515625 -2.484375 L 18.65625 -2.484375 C 19.601562 -2.484375 20.351562 -2.675781 20.90625 -3.0625 C 21.46875 -3.457031 21.898438 -3.976562 22.203125 -4.625 C 22.515625 -5.269531 22.722656 -5.960938 22.828125 -6.703125 L 23.078125 -8.84375 L 25.515625 -8.84375 L 25.203125 0 Z M 1.578125 0 "/></g></g><g style="fill:#ffffff;fill-opacity:1;"><g transform="translate(101.654444, 278.538718)"><path style="stroke:none" d="M 0.046875 0 L 0.046875 -2.078125 L 0.8125 -2.078125 C 1.382812 -2.078125 1.847656 -2.175781 2.203125 -2.375 C 2.566406 -2.582031 2.898438 -2.972656 3.203125 -3.546875 C 3.503906 -4.128906 3.828125 -4.960938 4.171875 -6.046875 L 13.71875 -36.296875 L 17.53125 -36.296875 L 27.34375 -4.53125 C 27.550781 -3.882812 27.78125 -3.390625 28.03125 -3.046875 C 28.28125 -2.710938 28.609375 -2.46875 29.015625 -2.3125 C 29.429688 -2.15625 29.925781 -2.078125 30.5 -2.078125 L 30.953125 -2.078125 L 30.953125 0 L 18.609375 0 L 18.609375 -2.078125 L 19.625 -2.078125 C 20.5 -2.078125 21.148438 -2.265625 21.578125 -2.640625 C 22.003906 -3.015625 22.21875 -3.539062 22.21875 -4.21875 C 22.21875 -4.457031 22.191406 -4.710938 22.140625 -4.984375 C 22.085938 -5.253906 22.023438 -5.554688 21.953125 -5.890625 C 21.890625 -6.234375 21.804688 -6.554688 21.703125 -6.859375 L 20.125 -12.203125 L 8.890625 -12.203125 L 7.421875 -7.21875 C 7.316406 -6.945312 7.226562 -6.640625 7.15625 -6.296875 C 7.09375 -5.960938 7.023438 -5.640625 6.953125 -5.328125 C 6.890625 -5.023438 6.859375 -4.722656 6.859375 -4.421875 C 6.859375 -3.710938 7.078125 -3.144531 7.515625 -2.71875 C 7.960938 -2.289062 8.675781 -2.078125 9.65625 -2.078125 L 10.78125 -2.078125 L 10.78125 0 Z M 9.765625 -14.6875 L 19.3125 -14.6875 L 16.625 -24.140625 C 16.351562 -25.160156 16.082031 -26.117188 15.8125 -27.015625 C 15.539062 -27.910156 15.3125 -28.75 15.125 -29.53125 C 14.9375 -30.3125 14.757812 -31.023438 14.59375 -31.671875 C 14.457031 -31.023438 14.296875 -30.316406 14.109375 -29.546875 C 13.921875 -28.785156 13.71875 -28.007812 13.5 -27.21875 C 13.28125 -26.425781 13.015625 -25.570312 12.703125 -24.65625 Z M 9.765625 -14.6875 "/></g></g><g style="fill:#ffffff;fill-opacity:1;"><g transform="translate(132.60643, 278.538718)"><path style="stroke:none" d="M 11.328125 0.515625 C 9.742188 0.515625 8.363281 0.34375 7.1875 0 C 6.019531 -0.34375 5.054688 -0.828125 4.296875 -1.453125 C 3.535156 -2.078125 2.96875 -2.8125 2.59375 -3.65625 C 2.21875 -4.507812 2.03125 -5.441406 2.03125 -6.453125 C 2.03125 -7.160156 2.171875 -7.773438 2.453125 -8.296875 C 2.742188 -8.828125 3.132812 -9.238281 3.625 -9.53125 C 4.125 -9.820312 4.726562 -9.96875 5.4375 -9.96875 C 5.507812 -8.4375 5.789062 -7.050781 6.28125 -5.8125 C 6.769531 -4.582031 7.472656 -3.617188 8.390625 -2.921875 C 9.304688 -2.222656 10.40625 -1.875 11.6875 -1.875 C 13.550781 -1.875 14.988281 -2.425781 16 -3.53125 C 17.019531 -4.632812 17.53125 -6.1875 17.53125 -8.1875 C 17.53125 -9.570312 17.285156 -10.726562 16.796875 -11.65625 C 16.304688 -12.59375 15.550781 -13.441406 14.53125 -14.203125 C 13.519531 -14.960938 12.179688 -15.75 10.515625 -16.5625 C 8.785156 -17.476562 7.34375 -18.441406 6.1875 -19.453125 C 5.039062 -20.472656 4.1875 -21.648438 3.625 -22.984375 C 3.070312 -24.328125 2.796875 -25.929688 2.796875 -27.796875 C 2.796875 -29.628906 3.21875 -31.210938 4.0625 -32.546875 C 4.914062 -33.890625 6.0625 -34.929688 7.5 -35.671875 C 8.9375 -36.421875 10.570312 -36.796875 12.40625 -36.796875 C 14.195312 -36.796875 15.710938 -36.515625 16.953125 -35.953125 C 18.191406 -35.398438 19.128906 -34.691406 19.765625 -33.828125 C 20.410156 -32.960938 20.734375 -32.039062 20.734375 -31.0625 C 20.734375 -29.96875 20.421875 -29.164062 19.796875 -28.65625 C 19.171875 -28.15625 18.265625 -27.90625 17.078125 -27.90625 C 17.078125 -29.019531 16.898438 -30.066406 16.546875 -31.046875 C 16.191406 -32.035156 15.640625 -32.832031 14.890625 -33.4375 C 14.148438 -34.050781 13.1875 -34.359375 12 -34.359375 C 10.375 -34.359375 9.128906 -33.820312 8.265625 -32.75 C 7.398438 -31.6875 6.96875 -30.238281 6.96875 -28.40625 C 6.96875 -27.15625 7.171875 -26.082031 7.578125 -25.1875 C 7.984375 -24.289062 8.675781 -23.476562 9.65625 -22.75 C 10.632812 -22.019531 11.972656 -21.210938 13.671875 -20.328125 C 15.429688 -19.484375 16.910156 -18.566406 18.109375 -17.578125 C 19.316406 -16.597656 20.234375 -15.472656 20.859375 -14.203125 C 21.492188 -12.929688 21.8125 -11.382812 21.8125 -9.5625 C 21.8125 -7.382812 21.367188 -5.554688 20.484375 -4.078125 C 19.597656 -2.609375 18.367188 -1.472656 16.796875 -0.671875 C 15.222656 0.117188 13.398438 0.515625 11.328125 0.515625 Z M 11.328125 0.515625 "/></g></g><g style="fill:#ffffff;fill-opacity:1;"><g transform="translate(156.392195, 278.538718)"><path style="stroke:none" d="M 1.578125 0 L 1.578125 -2.078125 L 2.390625 -2.078125 C 3.035156 -2.078125 3.601562 -2.160156 4.09375 -2.328125 C 4.582031 -2.503906 4.96875 -2.835938 5.25 -3.328125 C 5.539062 -3.816406 5.6875 -4.535156 5.6875 -5.484375 L 5.6875 -30.546875 C 5.6875 -31.628906 5.539062 -32.425781 5.25 -32.9375 C 4.96875 -33.445312 4.582031 -33.785156 4.09375 -33.953125 C 3.601562 -34.117188 3.035156 -34.203125 2.390625 -34.203125 L 1.578125 -34.203125 L 1.578125 -36.296875 L 23.84375 -36.296875 L 24.046875 -27.453125 L 21.65625 -27.453125 L 21.40625 -29.578125 C 21.363281 -30.328125 21.207031 -31.019531 20.9375 -31.65625 C 20.664062 -32.300781 20.257812 -32.816406 19.71875 -33.203125 C 19.175781 -33.597656 18.46875 -33.796875 17.59375 -33.796875 L 10.515625 -33.796875 L 10.515625 -20.234375 L 20.890625 -20.234375 L 20.890625 -17.796875 L 10.515625 -17.796875 L 10.515625 -2.484375 L 18.65625 -2.484375 C 19.601562 -2.484375 20.351562 -2.675781 20.90625 -3.0625 C 21.46875 -3.457031 21.898438 -3.976562 22.203125 -4.625 C 22.515625 -5.269531 22.722656 -5.960938 22.828125 -6.703125 L 23.078125 -8.84375 L 25.515625 -8.84375 L 25.203125 0 Z M 1.578125 0 "/></g></g><g style="fill:#ffffff;fill-opacity:1;"><g transform="translate(183.634007, 278.538718)"><path style="stroke:none" d=""/></g></g><g style="fill:#ffffff;fill-opacity:1;"><g transform="translate(195.476066, 278.538718)"><path style="stroke:none" d="M 15.859375 0.515625 C 12.941406 0.515625 10.484375 -0.265625 8.484375 -1.828125 C 6.484375 -3.390625 4.972656 -5.566406 3.953125 -8.359375 C 2.941406 -11.148438 2.4375 -14.429688 2.4375 -18.203125 C 2.4375 -21.921875 2.960938 -25.171875 4.015625 -27.953125 C 5.066406 -30.734375 6.632812 -32.898438 8.71875 -34.453125 C 10.800781 -36.015625 13.382812 -36.796875 16.46875 -36.796875 C 18.4375 -36.796875 20.097656 -36.53125 21.453125 -36 C 22.804688 -35.476562 23.820312 -34.785156 24.5 -33.921875 C 25.175781 -33.054688 25.515625 -32.101562 25.515625 -31.0625 C 25.515625 -30.007812 25.148438 -29.175781 24.421875 -28.5625 C 23.691406 -27.957031 22.734375 -27.65625 21.546875 -27.65625 C 21.546875 -28.738281 21.375 -29.769531 21.03125 -30.75 C 20.695312 -31.726562 20.140625 -32.539062 19.359375 -33.1875 C 18.585938 -33.832031 17.503906 -34.15625 16.109375 -34.15625 C 14.109375 -34.15625 12.484375 -33.519531 11.234375 -32.25 C 9.984375 -30.976562 9.078125 -29.144531 8.515625 -26.75 C 7.953125 -24.363281 7.671875 -21.515625 7.671875 -18.203125 C 7.671875 -14.984375 7.984375 -12.191406 8.609375 -9.828125 C 9.242188 -7.472656 10.210938 -5.660156 11.515625 -4.390625 C 12.816406 -3.117188 14.519531 -2.484375 16.625 -2.484375 C 18.082031 -2.484375 19.3125 -2.695312 20.3125 -3.125 C 21.3125 -3.550781 22.148438 -4.109375 22.828125 -4.796875 C 23.503906 -5.492188 24.113281 -6.25 24.65625 -7.0625 C 24.851562 -6.925781 25.03125 -6.6875 25.1875 -6.34375 C 25.34375 -6.007812 25.421875 -5.640625 25.421875 -5.234375 C 25.421875 -4.628906 25.234375 -3.992188 24.859375 -3.328125 C 24.484375 -2.671875 23.914062 -2.050781 23.15625 -1.46875 C 22.394531 -0.894531 21.410156 -0.421875 20.203125 -0.046875 C 19.003906 0.328125 17.554688 0.515625 15.859375 0.515625 Z M 15.859375 0.515625 "/></g></g><g style="fill:#ffffff;fill-opacity:1;"><g transform="translate(222.56542, 278.538718)"><path style="stroke:none" d="M 1.578125 0 L 1.578125 -2.078125 L 2.4375 -2.078125 C 3.082031 -2.078125 3.648438 -2.171875 4.140625 -2.359375 C 4.628906 -2.546875 5.007812 -2.894531 5.28125 -3.40625 C 5.550781 -3.914062 5.6875 -4.675781 5.6875 -5.6875 L 5.6875 -30.75 C 5.6875 -31.726562 5.539062 -32.460938 5.25 -32.953125 C 4.96875 -33.453125 4.570312 -33.785156 4.0625 -33.953125 C 3.550781 -34.117188 2.957031 -34.203125 2.28125 -34.203125 L 1.578125 -34.203125 L 1.578125 -36.296875 L 14.390625 -36.296875 L 14.390625 -34.203125 L 13.71875 -34.203125 C 13.113281 -34.203125 12.5625 -34.117188 12.0625 -33.953125 C 11.570312 -33.785156 11.191406 -33.445312 10.921875 -32.9375 C 10.648438 -32.425781 10.515625 -31.664062 10.515625 -30.65625 L 10.515625 -20.234375 L 24.09375 -20.234375 L 24.09375 -30.59375 C 24.09375 -31.644531 23.960938 -32.425781 23.703125 -32.9375 C 23.453125 -33.445312 23.070312 -33.785156 22.5625 -33.953125 C 22.0625 -34.117188 21.488281 -34.203125 20.84375 -34.203125 L 20.171875 -34.203125 L 20.171875 -36.296875 L 33.03125 -36.296875 L 33.03125 -34.203125 L 32.171875 -34.203125 C 31.566406 -34.203125 31.007812 -34.117188 30.5 -33.953125 C 29.988281 -33.785156 29.597656 -33.445312 29.328125 -32.9375 C 29.054688 -32.425781 28.921875 -31.644531 28.921875 -30.59375 L 28.921875 -5.484375 C 28.921875 -4.535156 29.0625 -3.816406 29.34375 -3.328125 C 29.632812 -2.835938 30.023438 -2.503906 30.515625 -2.328125 C 31.015625 -2.160156 31.566406 -2.078125 32.171875 -2.078125 L 33.03125 -2.078125 L 33.03125 0 L 20.171875 0 L 20.171875 -2.078125 L 20.84375 -2.078125 C 21.488281 -2.078125 22.0625 -2.171875 22.5625 -2.359375 C 23.070312 -2.546875 23.453125 -2.898438 23.703125 -3.421875 C 23.960938 -3.953125 24.09375 -4.726562 24.09375 -5.75 L 24.09375 -17.734375 L 10.515625 -17.734375 L 10.515625 -5.6875 C 10.515625 -4.675781 10.648438 -3.914062 10.921875 -3.40625 C 11.191406 -2.894531 11.570312 -2.546875 12.0625 -2.359375 C 12.5625 -2.171875 13.113281 -2.078125 13.71875 -2.078125 L 14.390625 -2.078125 L 14.390625 0 Z M 1.578125 0 "/></g></g><g style="fill:#ffffff;fill-opacity:1;"><g transform="translate(257.176746, 278.538718)"><path style="stroke:none" d="M 1.578125 0 L 1.578125 -2.078125 L 2.390625 -2.078125 C 3.035156 -2.078125 3.601562 -2.160156 4.09375 -2.328125 C 4.582031 -2.503906 4.96875 -2.835938 5.25 -3.328125 C 5.539062 -3.816406 5.6875 -4.535156 5.6875 -5.484375 L 5.6875 -30.546875 C 5.6875 -31.628906 5.539062 -32.425781 5.25 -32.9375 C 4.96875 -33.445312 4.582031 -33.785156 4.09375 -33.953125 C 3.601562 -34.117188 3.035156 -34.203125 2.390625 -34.203125 L 1.578125 -34.203125 L 1.578125 -36.296875 L 23.84375 -36.296875 L 24.046875 -27.453125 L 21.65625 -27.453125 L 21.40625 -29.578125 C 21.363281 -30.328125 21.207031 -31.019531 20.9375 -31.65625 C 20.664062 -32.300781 20.257812 -32.816406 19.71875 -33.203125 C 19.175781 -33.597656 18.46875 -33.796875 17.59375 -33.796875 L 10.515625 -33.796875 L 10.515625 -20.234375 L 20.890625 -20.234375 L 20.890625 -17.796875 L 10.515625 -17.796875 L 10.515625 -2.484375 L 18.65625 -2.484375 C 19.601562 -2.484375 20.351562 -2.675781 20.90625 -3.0625 C 21.46875 -3.457031 21.898438 -3.976562 22.203125 -4.625 C 22.515625 -5.269531 22.722656 -5.960938 22.828125 -6.703125 L 23.078125 -8.84375 L 25.515625 -8.84375 L 25.203125 0 Z M 1.578125 0 "/></g></g><g style="fill:#ffffff;fill-opacity:1;"><g transform="translate(284.418558, 278.538718)"><path style="stroke:none" d="M 15.859375 0.515625 C 12.941406 0.515625 10.484375 -0.265625 8.484375 -1.828125 C 6.484375 -3.390625 4.972656 -5.566406 3.953125 -8.359375 C 2.941406 -11.148438 2.4375 -14.429688 2.4375 -18.203125 C 2.4375 -21.921875 2.960938 -25.171875 4.015625 -27.953125 C 5.066406 -30.734375 6.632812 -32.898438 8.71875 -34.453125 C 10.800781 -36.015625 13.382812 -36.796875 16.46875 -36.796875 C 18.4375 -36.796875 20.097656 -36.53125 21.453125 -36 C 22.804688 -35.476562 23.820312 -34.785156 24.5 -33.921875 C 25.175781 -33.054688 25.515625 -32.101562 25.515625 -31.0625 C 25.515625 -30.007812 25.148438 -29.175781 24.421875 -28.5625 C 23.691406 -27.957031 22.734375 -27.65625 21.546875 -27.65625 C 21.546875 -28.738281 21.375 -29.769531 21.03125 -30.75 C 20.695312 -31.726562 20.140625 -32.539062 19.359375 -33.1875 C 18.585938 -33.832031 17.503906 -34.15625 16.109375 -34.15625 C 14.109375 -34.15625 12.484375 -33.519531 11.234375 -32.25 C 9.984375 -30.976562 9.078125 -29.144531 8.515625 -26.75 C 7.953125 -24.363281 7.671875 -21.515625 7.671875 -18.203125 C 7.671875 -14.984375 7.984375 -12.191406 8.609375 -9.828125 C 9.242188 -7.472656 10.210938 -5.660156 11.515625 -4.390625 C 12.816406 -3.117188 14.519531 -2.484375 16.625 -2.484375 C 18.082031 -2.484375 19.3125 -2.695312 20.3125 -3.125 C 21.3125 -3.550781 22.148438 -4.109375 22.828125 -4.796875 C 23.503906 -5.492188 24.113281 -6.25 24.65625 -7.0625 C 24.851562 -6.925781 25.03125 -6.6875 25.1875 -6.34375 C 25.34375 -6.007812 25.421875 -5.640625 25.421875 -5.234375 C 25.421875 -4.628906 25.234375 -3.992188 24.859375 -3.328125 C 24.484375 -2.671875 23.914062 -2.050781 23.15625 -1.46875 C 22.394531 -0.894531 21.410156 -0.421875 20.203125 -0.046875 C 19.003906 0.328125 17.554688 0.515625 15.859375 0.515625 Z M 15.859375 0.515625 "/></g></g><g style="fill:#ffffff;fill-opacity:1;"><g transform="translate(311.507888, 278.538718)"><path style="stroke:none" d="M 1.578125 0 L 1.578125 -2.078125 L 2.28125 -2.078125 C 2.957031 -2.078125 3.550781 -2.160156 4.0625 -2.328125 C 4.570312 -2.503906 4.96875 -2.828125 5.25 -3.296875 C 5.539062 -3.773438 5.6875 -4.503906 5.6875 -5.484375 L 5.6875 -30.796875 C 5.6875 -31.785156 5.539062 -32.515625 5.25 -32.984375 C 4.96875 -33.460938 4.570312 -33.785156 4.0625 -33.953125 C 3.550781 -34.117188 2.992188 -34.203125 2.390625 -34.203125 L 1.578125 -34.203125 L 1.578125 -36.296875 L 14.390625 -36.296875 L 14.390625 -34.203125 L 13.78125 -34.203125 C 13.164062 -34.203125 12.601562 -34.117188 12.09375 -33.953125 C 11.582031 -33.785156 11.191406 -33.445312 10.921875 -32.9375 C 10.648438 -32.425781 10.515625 -31.664062 10.515625 -30.65625 L 10.515625 -15.75 L 19.265625 -28.265625 C 19.910156 -29.140625 20.410156 -29.878906 20.765625 -30.484375 C 21.117188 -31.097656 21.378906 -31.617188 21.546875 -32.046875 C 21.722656 -32.472656 21.8125 -32.835938 21.8125 -33.140625 C 21.8125 -33.578125 21.628906 -33.875 21.265625 -34.03125 C 20.910156 -34.1875 20.34375 -34.265625 19.5625 -34.265625 L 19.5625 -36.296875 L 29.421875 -36.296875 L 29.421875 -34.265625 C 28.742188 -34.265625 28.097656 -34.078125 27.484375 -33.703125 C 26.878906 -33.328125 26.253906 -32.789062 25.609375 -32.09375 C 24.972656 -31.40625 24.28125 -30.550781 23.53125 -29.53125 L 17.234375 -21.09375 L 26.53125 -6.203125 C 27.070312 -5.316406 27.601562 -4.566406 28.125 -3.953125 C 28.65625 -3.347656 29.179688 -2.882812 29.703125 -2.5625 C 30.234375 -2.238281 30.753906 -2.078125 31.265625 -2.078125 L 31.359375 -2.078125 L 31.359375 0 L 30.09375 0 C 28.800781 0 27.722656 -0.0703125 26.859375 -0.21875 C 25.992188 -0.375 25.253906 -0.640625 24.640625 -1.015625 C 24.035156 -1.390625 23.476562 -1.90625 22.96875 -2.5625 C 22.46875 -3.226562 21.925781 -4.085938 21.34375 -5.140625 L 14.078125 -17.390625 L 10.515625 -12.90625 L 10.515625 -5.640625 C 10.515625 -4.660156 10.660156 -3.90625 10.953125 -3.375 C 11.242188 -2.851562 11.640625 -2.503906 12.140625 -2.328125 C 12.648438 -2.160156 13.226562 -2.078125 13.875 -2.078125 L 14.390625 -2.078125 L 14.390625 0 Z M 1.578125 0 "/></g></g><g style="fill:#ffffff;fill-opacity:1;"><g transform="translate(342.410142, 278.538718)"><path style="stroke:none" d=""/></g></g><g style="fill:#ffffff;fill-opacity:1;"><g transform="translate(76.066406, 349.038713)"><path style="stroke:none" d="M 1.578125 0 L 1.578125 -2.078125 L 2.4375 -2.078125 C 3.050781 -2.078125 3.601562 -2.160156 4.09375 -2.328125 C 4.582031 -2.503906 4.96875 -2.851562 5.25 -3.375 C 5.539062 -3.90625 5.6875 -4.660156 5.6875 -5.640625 L 5.6875 -30.59375 C 5.6875 -31.644531 5.539062 -32.425781 5.25 -32.9375 C 4.96875 -33.445312 4.570312 -33.785156 4.0625 -33.953125 C 3.550781 -34.117188 2.976562 -34.203125 2.34375 -34.203125 L 1.578125 -34.203125 L 1.578125 -36.296875 L 14.640625 -36.296875 L 14.640625 -34.203125 L 13.828125 -34.203125 C 13.148438 -34.203125 12.5625 -34.117188 12.0625 -33.953125 C 11.570312 -33.785156 11.191406 -33.453125 10.921875 -32.953125 C 10.648438 -32.460938 10.515625 -31.726562 10.515625 -30.75 L 10.515625 -2.484375 L 19.015625 -2.484375 C 19.859375 -2.484375 20.539062 -2.6875 21.0625 -3.09375 C 21.59375 -3.5 22 -4.050781 22.28125 -4.75 C 22.570312 -5.445312 22.769531 -6.21875 22.875 -7.0625 L 23.328125 -10.875 L 25.515625 -10.875 L 25.203125 0 Z M 1.578125 0 "/></g></g><g style="fill:#ffffff;fill-opacity:1;"><g transform="translate(103.257395, 349.038713)"><path style="stroke:none" d="M 16.265625 0.515625 C 13.148438 0.515625 10.566406 -0.265625 8.515625 -1.828125 C 6.460938 -3.390625 4.9375 -5.578125 3.9375 -8.390625 C 2.9375 -11.203125 2.4375 -14.488281 2.4375 -18.25 C 2.4375 -22.007812 2.9375 -25.273438 3.9375 -28.046875 C 4.9375 -30.828125 6.46875 -32.988281 8.53125 -34.53125 C 10.601562 -36.070312 13.195312 -36.84375 16.3125 -36.84375 C 19.257812 -36.84375 21.757812 -36.070312 23.8125 -34.53125 C 25.863281 -32.988281 27.421875 -30.820312 28.484375 -28.03125 C 29.554688 -25.238281 30.09375 -21.960938 30.09375 -18.203125 C 30.09375 -14.429688 29.554688 -11.148438 28.484375 -8.359375 C 27.421875 -5.566406 25.863281 -3.390625 23.8125 -1.828125 C 21.757812 -0.265625 19.242188 0.515625 16.265625 0.515625 Z M 16.265625 -2.1875 C 18.367188 -2.1875 20.054688 -2.820312 21.328125 -4.09375 C 22.597656 -5.363281 23.503906 -7.191406 24.046875 -9.578125 C 24.585938 -11.972656 24.859375 -14.847656 24.859375 -18.203125 C 24.859375 -21.585938 24.578125 -24.460938 24.015625 -26.828125 C 23.453125 -29.203125 22.550781 -31.015625 21.3125 -32.265625 C 20.082031 -33.523438 18.414062 -34.15625 16.3125 -34.15625 C 13.226562 -34.15625 11.015625 -32.753906 9.671875 -29.953125 C 8.335938 -27.160156 7.671875 -23.242188 7.671875 -18.203125 C 7.671875 -14.847656 7.957031 -11.972656 8.53125 -9.578125 C 9.113281 -7.191406 10.039062 -5.363281 11.3125 -4.09375 C 12.582031 -2.820312 14.234375 -2.1875 16.265625 -2.1875 Z M 16.265625 -2.1875 "/></g></g><g style="fill:#ffffff;fill-opacity:1;"><g transform="translate(135.784934, 349.038713)"><path style="stroke:none" d="M 17.59375 0.515625 C 14.195312 0.515625 11.375 -0.265625 9.125 -1.828125 C 6.875 -3.390625 5.195312 -5.566406 4.09375 -8.359375 C 2.988281 -11.148438 2.4375 -14.429688 2.4375 -18.203125 C 2.4375 -21.859375 3.007812 -25.082031 4.15625 -27.875 C 5.3125 -30.675781 7.035156 -32.863281 9.328125 -34.4375 C 11.617188 -36.007812 14.441406 -36.796875 17.796875 -36.796875 C 19.921875 -36.796875 21.703125 -36.550781 23.140625 -36.0625 C 24.585938 -35.570312 25.691406 -34.898438 26.453125 -34.046875 C 27.210938 -33.203125 27.59375 -32.238281 27.59375 -31.15625 C 27.59375 -30.070312 27.21875 -29.207031 26.46875 -28.5625 C 25.726562 -27.914062 24.75 -27.59375 23.53125 -27.59375 C 23.53125 -28.644531 23.332031 -29.671875 22.9375 -30.671875 C 22.550781 -31.671875 21.925781 -32.5 21.0625 -33.15625 C 20.195312 -33.820312 19.054688 -34.15625 17.640625 -34.15625 C 15.335938 -34.15625 13.457031 -33.5625 12 -32.375 C 10.539062 -31.1875 9.460938 -29.40625 8.765625 -27.03125 C 8.066406 -24.664062 7.71875 -21.722656 7.71875 -18.203125 C 7.71875 -14.773438 8.054688 -11.875 8.734375 -9.5 C 9.421875 -7.132812 10.535156 -5.332031 12.078125 -4.09375 C 13.617188 -2.851562 15.675781 -2.234375 18.25 -2.234375 C 19.03125 -2.234375 19.789062 -2.285156 20.53125 -2.390625 C 21.28125 -2.492188 21.941406 -2.660156 22.515625 -2.890625 L 22.515625 -11.234375 C 22.515625 -12.253906 22.378906 -13.007812 22.109375 -13.5 C 21.835938 -13.988281 21.445312 -14.300781 20.9375 -14.4375 C 20.425781 -14.570312 19.851562 -14.640625 19.21875 -14.640625 L 18.859375 -14.640625 L 18.859375 -16.71875 L 30.390625 -16.71875 L 30.390625 -14.640625 L 30.09375 -14.640625 C 29.507812 -14.640625 29.015625 -14.5625 28.609375 -14.40625 C 28.203125 -14.257812 27.890625 -13.929688 27.671875 -13.421875 C 27.453125 -12.910156 27.34375 -12.113281 27.34375 -11.03125 L 27.34375 -1.78125 C 25.851562 -1.03125 24.328125 -0.457031 22.765625 -0.0625 C 21.210938 0.320312 19.488281 0.515625 17.59375 0.515625 Z M 17.59375 0.515625 "/></g></g><g style="fill:#ffffff;fill-opacity:1;"><g transform="translate(167.143518, 349.038713)"><path style="stroke:none" d="M 16.265625 0.515625 C 13.148438 0.515625 10.566406 -0.265625 8.515625 -1.828125 C 6.460938 -3.390625 4.9375 -5.578125 3.9375 -8.390625 C 2.9375 -11.203125 2.4375 -14.488281 2.4375 -18.25 C 2.4375 -22.007812 2.9375 -25.273438 3.9375 -28.046875 C 4.9375 -30.828125 6.46875 -32.988281 8.53125 -34.53125 C 10.601562 -36.070312 13.195312 -36.84375 16.3125 -36.84375 C 19.257812 -36.84375 21.757812 -36.070312 23.8125 -34.53125 C 25.863281 -32.988281 27.421875 -30.820312 28.484375 -28.03125 C 29.554688 -25.238281 30.09375 -21.960938 30.09375 -18.203125 C 30.09375 -14.429688 29.554688 -11.148438 28.484375 -8.359375 C 27.421875 -5.566406 25.863281 -3.390625 23.8125 -1.828125 C 21.757812 -0.265625 19.242188 0.515625 16.265625 0.515625 Z M 16.265625 -2.1875 C 18.367188 -2.1875 20.054688 -2.820312 21.328125 -4.09375 C 22.597656 -5.363281 23.503906 -7.191406 24.046875 -9.578125 C 24.585938 -11.972656 24.859375 -14.847656 24.859375 -18.203125 C 24.859375 -21.585938 24.578125 -24.460938 24.015625 -26.828125 C 23.453125 -29.203125 22.550781 -31.015625 21.3125 -32.265625 C 20.082031 -33.523438 18.414062 -34.15625 16.3125 -34.15625 C 13.226562 -34.15625 11.015625 -32.753906 9.671875 -29.953125 C 8.335938 -27.160156 7.671875 -23.242188 7.671875 -18.203125 C 7.671875 -14.847656 7.957031 -11.972656 8.53125 -9.578125 C 9.113281 -7.191406 10.039062 -5.363281 11.3125 -4.09375 C 12.582031 -2.820312 14.234375 -2.1875 16.265625 -2.1875 Z M 16.265625 -2.1875 "/></g></g><g style="fill:#ffffff;fill-opacity:1;"><g transform="translate(199.671057, 349.038713)"><path style="stroke:none" d=""/></g></g><g style="fill:#ffffff;fill-opacity:1;"><g transform="translate(211.513117, 349.038713)"><path style="stroke:none" d="M 15.75 0.515625 C 13.519531 0.515625 11.570312 0.132812 9.90625 -0.625 C 8.25 -1.394531 6.976562 -2.625 6.09375 -4.3125 C 5.21875 -6.007812 4.78125 -8.234375 4.78125 -10.984375 L 4.78125 -30.75 C 4.78125 -31.769531 4.617188 -32.523438 4.296875 -33.015625 C 3.972656 -33.503906 3.546875 -33.820312 3.015625 -33.96875 C 2.492188 -34.125 1.910156 -34.203125 1.265625 -34.203125 L 0.65625 -34.203125 L 0.65625 -36.296875 L 13.671875 -36.296875 L 13.671875 -34.203125 L 13.109375 -34.203125 C 12.429688 -34.203125 11.828125 -34.117188 11.296875 -33.953125 C 10.773438 -33.785156 10.363281 -33.445312 10.0625 -32.9375 C 9.757812 -32.425781 9.609375 -31.628906 9.609375 -30.546875 L 9.609375 -10.671875 C 9.609375 -7.691406 10.257812 -5.582031 11.5625 -4.34375 C 12.863281 -3.101562 14.566406 -2.484375 16.671875 -2.484375 C 18.296875 -2.484375 19.625 -2.835938 20.65625 -3.546875 C 21.695312 -4.265625 22.476562 -5.222656 23 -6.421875 C 23.519531 -7.628906 23.78125 -8.992188 23.78125 -10.515625 L 23.78125 -30.75 C 23.78125 -31.769531 23.617188 -32.523438 23.296875 -33.015625 C 22.984375 -33.503906 22.570312 -33.820312 22.0625 -33.96875 C 21.550781 -34.125 20.957031 -34.203125 20.28125 -34.203125 L 19.71875 -34.203125 L 19.71875 -36.296875 L 30.65625 -36.296875 L 30.65625 -34.203125 L 30.09375 -34.203125 C 29.414062 -34.203125 28.804688 -34.117188 28.265625 -33.953125 C 27.722656 -33.785156 27.296875 -33.445312 26.984375 -32.9375 C 26.679688 -32.425781 26.53125 -31.628906 26.53125 -30.546875 L 26.53125 -10.421875 C 26.53125 -8.179688 26.128906 -6.25 25.328125 -4.625 C 24.535156 -3 23.332031 -1.734375 21.71875 -0.828125 C 20.113281 0.0664062 18.125 0.515625 15.75 0.515625 Z M 15.75 0.515625 "/></g></g><g style="fill:#ffffff;fill-opacity:1;"><g transform="translate(242.820877, 349.038713)"><path style="stroke:none" d="M 1.578125 0 L 1.578125 -2.078125 L 2.28125 -2.078125 C 2.894531 -2.078125 3.460938 -2.15625 3.984375 -2.3125 C 4.515625 -2.46875 4.929688 -2.789062 5.234375 -3.28125 C 5.535156 -3.769531 5.6875 -4.503906 5.6875 -5.484375 L 5.6875 -30.75 C 5.6875 -31.769531 5.523438 -32.523438 5.203125 -33.015625 C 4.890625 -33.503906 4.476562 -33.820312 3.96875 -33.96875 C 3.457031 -34.125 2.894531 -34.203125 2.28125 -34.203125 L 1.578125 -34.203125 L 1.578125 -36.296875 L 13.625 -36.296875 C 16.269531 -36.296875 18.4375 -35.957031 20.125 -35.28125 C 21.820312 -34.601562 23.066406 -33.550781 23.859375 -32.125 C 24.660156 -30.695312 25.0625 -28.882812 25.0625 -26.6875 C 25.0625 -24.789062 24.765625 -23.207031 24.171875 -21.9375 C 23.578125 -20.664062 22.785156 -19.644531 21.796875 -18.875 C 20.816406 -18.113281 19.769531 -17.53125 18.65625 -17.125 L 24.5 -6.15625 C 25.25 -4.832031 25.960938 -3.820312 26.640625 -3.125 C 27.316406 -2.425781 28.09375 -2.078125 28.96875 -2.078125 L 29.125 -2.078125 L 29.125 0 L 28.359375 0 C 26.734375 0 25.410156 -0.117188 24.390625 -0.359375 C 23.378906 -0.597656 22.523438 -1.046875 21.828125 -1.703125 C 21.128906 -2.359375 20.476562 -3.316406 19.875 -4.578125 L 14.125 -16.015625 L 10.515625 -16.015625 L 10.515625 -5.484375 C 10.515625 -4.503906 10.664062 -3.769531 10.96875 -3.28125 C 11.28125 -2.789062 11.679688 -2.46875 12.171875 -2.3125 C 12.660156 -2.15625 13.226562 -2.078125 13.875 -2.078125 L 14.390625 -2.078125 L 14.390625 0 Z M 13.0625 -18.34375 C 15.53125 -18.34375 17.296875 -19.035156 18.359375 -20.421875 C 19.429688 -21.816406 19.96875 -23.835938 19.96875 -26.484375 C 19.96875 -28.171875 19.75 -29.566406 19.3125 -30.671875 C 18.875 -31.773438 18.171875 -32.585938 17.203125 -33.109375 C 16.234375 -33.640625 14.957031 -33.90625 13.375 -33.90625 L 10.515625 -33.90625 L 10.515625 -18.34375 Z M 13.0625 -18.34375 "/></g></g><g style="fill:#ffffff;fill-opacity:1;"><g transform="translate(271.739901, 349.038713)"><path style="stroke:none" d="M 1.578125 0 L 1.578125 -2.078125 L 2.4375 -2.078125 C 3.050781 -2.078125 3.601562 -2.160156 4.09375 -2.328125 C 4.582031 -2.503906 4.96875 -2.851562 5.25 -3.375 C 5.539062 -3.90625 5.6875 -4.660156 5.6875 -5.640625 L 5.6875 -30.59375 C 5.6875 -31.644531 5.539062 -32.425781 5.25 -32.9375 C 4.96875 -33.445312 4.570312 -33.785156 4.0625 -33.953125 C 3.550781 -34.117188 2.976562 -34.203125 2.34375 -34.203125 L 1.578125 -34.203125 L 1.578125 -36.296875 L 14.640625 -36.296875 L 14.640625 -34.203125 L 13.828125 -34.203125 C 13.148438 -34.203125 12.5625 -34.117188 12.0625 -33.953125 C 11.570312 -33.785156 11.191406 -33.453125 10.921875 -32.953125 C 10.648438 -32.460938 10.515625 -31.726562 10.515625 -30.75 L 10.515625 -2.484375 L 19.015625 -2.484375 C 19.859375 -2.484375 20.539062 -2.6875 21.0625 -3.09375 C 21.59375 -3.5 22 -4.050781 22.28125 -4.75 C 22.570312 -5.445312 22.769531 -6.21875 22.875 -7.0625 L 23.328125 -10.875 L 25.515625 -10.875 L 25.203125 0 Z M 1.578125 0 "/></g></g></g></svg>