<svg xmlns="http://www.w3.org/2000/svg" xmlns:xlink="http://www.w3.org/1999/xlink" width="500" zoomAndPan="magnify" viewBox="0 0 375 374.999991" height="500" preserveAspectRatio="xMidYMid meet" version="1.2"><defs><clipPath id="44cb45ed52"><path d="M 10.246094 43.480469 L 364.996094 43.480469 L 364.996094 331.480469 L 10.246094 331.480469 Z M 10.246094 43.480469 "/></clipPath></defs><g id="3f74acb783"><rect x="0" width="375" y="0" height="374.999991" style="fill:#ffffff;fill-opacity:1;stroke:none;"/><rect x="0" width="375" y="0" height="374.999991" style="fill:#000000;fill-opacity:1;stroke:none;"/><g clip-rule="nonzero" clip-path="url(#44cb45ed52)"><path style=" stroke:none;fill-rule:evenodd;fill:#ffffff;fill-opacity:1;" d="M 248.398438 331.480469 C 251.449219 331.480469 253.9375 328.992188 253.9375 325.941406 L 253.9375 170.867188 C 253.9375 167.816406 251.449219 165.328125 248.398438 165.328125 L 165.324219 165.328125 C 163.722656 165.328125 162.207031 166.019531 161.148438 167.230469 L 122.378906 211.539062 C 121.511719 212.535156 121.015625 213.832031 121.015625 215.175781 L 121.015625 325.941406 C 121.015625 328.992188 123.503906 331.480469 126.554688 331.480469 Z M 187.476562 257.1875 L 169.238281 238.949219 C 167.074219 236.785156 163.570312 236.785156 161.40625 238.949219 C 159.242188 241.113281 159.242188 244.617188 161.40625 246.78125 L 179.644531 265.019531 L 161.40625 283.257812 C 159.242188 285.421875 159.242188 288.925781 161.40625 291.089844 C 163.570312 293.253906 167.074219 293.253906 169.238281 291.089844 L 187.476562 272.851562 L 205.714844 291.089844 C 207.878906 293.253906 211.382812 293.253906 213.546875 291.089844 C 215.710938 288.925781 215.710938 285.421875 213.546875 283.257812 L 195.308594 265.019531 L 213.546875 246.78125 C 215.710938 244.617188 215.710938 241.113281 213.546875 238.949219 C 211.382812 236.785156 207.878906 236.785156 205.714844 238.949219 Z M 87.957031 132.097656 L 87.785156 132.097656 C 44.992188 132.097656 10.246094 166.84375 10.246094 209.636719 C 10.246094 252.429688 44.992188 287.171875 87.785156 287.171875 L 104.402344 287.171875 C 107.449219 287.171875 109.9375 284.6875 109.9375 281.636719 C 109.9375 278.585938 107.449219 276.097656 104.402344 276.097656 L 87.785156 276.097656 C 51.113281 276.097656 21.324219 246.304688 21.324219 209.636719 C 21.324219 172.964844 51.113281 143.175781 87.785156 143.175781 L 93.324219 143.175781 C 96.375 143.175781 98.863281 140.6875 98.863281 137.636719 C 98.863281 91.683594 138.667969 54.558594 187.476562 54.558594 C 236.285156 54.558594 276.09375 91.683594 276.09375 137.636719 C 276.09375 140.6875 278.582031 143.175781 281.628906 143.175781 L 287.167969 143.175781 C 323.839844 143.175781 353.628906 172.964844 353.628906 209.636719 C 353.628906 246.304688 323.839844 276.097656 287.167969 276.097656 L 270.554688 276.097656 C 267.503906 276.097656 265.015625 278.585938 265.015625 281.636719 C 265.015625 284.6875 267.503906 287.171875 270.554688 287.171875 L 287.167969 287.171875 C 329.960938 287.171875 364.707031 252.429688 364.707031 209.636719 C 364.707031 166.84375 329.960938 132.097656 287.167969 132.097656 L 286.996094 132.097656 C 283.96875 82.792969 240.613281 43.480469 187.476562 43.480469 C 134.34375 43.480469 90.988281 82.792969 87.957031 132.097656 Z M 159.785156 185.597656 L 138.757812 209.636719 L 159.785156 209.636719 L 159.785156 185.597656 "/><path style=" stroke:none;fill-rule:evenodd;fill:#ffffff;fill-opacity:1;" d="M 248.398438 331.480469 C 251.449219 331.480469 253.9375 328.992188 253.9375 325.941406 L 253.9375 170.867188 C 253.9375 167.816406 251.449219 165.328125 248.398438 165.328125 L 165.324219 165.328125 C 163.722656 165.328125 162.207031 166.019531 161.148438 167.230469 L 122.378906 211.539062 C 121.511719 212.535156 121.015625 213.832031 121.015625 215.175781 L 121.015625 325.941406 C 121.015625 328.992188 123.503906 331.480469 126.554688 331.480469 Z M 187.476562 257.1875 L 169.238281 238.949219 C 167.074219 236.785156 163.570312 236.785156 161.40625 238.949219 C 159.242188 241.113281 159.242188 244.617188 161.40625 246.78125 L 179.644531 265.019531 L 161.40625 283.257812 C 159.242188 285.421875 159.242188 288.925781 161.40625 291.089844 C 163.570312 293.253906 167.074219 293.253906 169.238281 291.089844 L 187.476562 272.851562 L 205.714844 291.089844 C 207.878906 293.253906 211.382812 293.253906 213.546875 291.089844 C 215.710938 288.925781 215.710938 285.421875 213.546875 283.257812 L 195.308594 265.019531 L 213.546875 246.78125 C 215.710938 244.617188 215.710938 241.113281 213.546875 238.949219 C 211.382812 236.785156 207.878906 236.785156 205.714844 238.949219 Z M 87.957031 132.097656 L 87.785156 132.097656 C 44.992188 132.097656 10.246094 166.84375 10.246094 209.636719 C 10.246094 252.429688 44.992188 287.171875 87.785156 287.171875 L 104.402344 287.171875 C 107.449219 287.171875 109.9375 284.6875 109.9375 281.636719 C 109.9375 278.585938 107.449219 276.097656 104.402344 276.097656 L 87.785156 276.097656 C 51.113281 276.097656 21.324219 246.304688 21.324219 209.636719 C 21.324219 172.964844 51.113281 143.175781 87.785156 143.175781 L 93.324219 143.175781 C 96.375 143.175781 98.863281 140.6875 98.863281 137.636719 C 98.863281 91.683594 138.667969 54.558594 187.476562 54.558594 C 236.285156 54.558594 276.09375 91.683594 276.09375 137.636719 C 276.09375 140.6875 278.582031 143.175781 281.628906 143.175781 L 287.167969 143.175781 C 323.839844 143.175781 353.628906 172.964844 353.628906 209.636719 C 353.628906 246.304688 323.839844 276.097656 287.167969 276.097656 L 270.554688 276.097656 C 267.503906 276.097656 265.015625 278.585938 265.015625 281.636719 C 265.015625 284.6875 267.503906 287.171875 270.554688 287.171875 L 287.167969 287.171875 C 329.960938 287.171875 364.707031 252.429688 364.707031 209.636719 C 364.707031 166.84375 329.960938 132.097656 287.167969 132.097656 L 286.996094 132.097656 C 283.96875 82.792969 240.613281 43.480469 187.476562 43.480469 C 134.34375 43.480469 90.988281 82.792969 87.957031 132.097656 Z M 159.785156 185.597656 L 138.757812 209.636719 L 159.785156 209.636719 L 159.785156 185.597656 "/></g></g></svg>