<svg xmlns="http://www.w3.org/2000/svg" xmlns:xlink="http://www.w3.org/1999/xlink" width="500" zoomAndPan="magnify" viewBox="0 0 375 374.999991" height="500" preserveAspectRatio="xMidYMid meet" version="1.2"><defs><clipPath id="50fb3cbec9"><path d="M 23 155 L 96.289062 155 L 96.289062 227.554688 L 23 227.554688 Z M 23 155 "/></clipPath><clipPath id="7179ca604e"><path d="M 16.039062 149.554688 L 49 149.554688 L 49 182 L 16.039062 182 Z M 16.039062 149.554688 "/></clipPath><clipPath id="ec58a37777"><path d="M 59 155 L 96.289062 155 L 96.289062 227.554688 L 59 227.554688 Z M 59 155 "/></clipPath><clipPath id="9ba1963929"><path d="M 13.828125 147.429688 L 50.691406 147.429688 L 50.691406 184.910156 L 13.828125 184.910156 Z M 13.828125 147.429688 "/></clipPath><clipPath id="3bc373d4a0"><path d="M 41 172 L 79.832031 172 L 79.832031 211.585938 L 41 211.585938 Z M 41 172 "/></clipPath><clipPath id="0189f8605b"><path d="M 35.6875 170.335938 L 56 170.335938 L 56 191 L 35.6875 191 Z M 35.6875 170.335938 "/></clipPath></defs><g id="e913addb0e"><rect x="0" width="375" y="0" height="374.999991" style="fill:#ffffff;fill-opacity:1;stroke:none;"/><rect x="0" width="375" y="0" height="374.999991" style="fill:#0d2329;fill-opacity:1;stroke:none;"/><g clip-rule="nonzero" clip-path="url(#50fb3cbec9)"><path style=" stroke:none;fill-rule:nonzero;fill:#5aff7a;fill-opacity:1;" d="M 59.769531 155.007812 L 68.894531 155.007812 C 83.859375 155.007812 96.03125 167.179688 96.03125 182.144531 L 96.03125 227.527344 L 50.644531 227.527344 C 35.683594 227.527344 23.511719 215.355469 23.511719 200.394531 L 23.511719 191.269531 L 38.636719 191.269531 L 38.636719 200.394531 C 38.636719 207.019531 44.019531 212.402344 50.644531 212.402344 L 80.90625 212.402344 L 80.90625 182.144531 C 80.90625 175.523438 75.515625 170.132812 68.898438 170.132812 L 59.773438 170.132812 L 59.773438 155.007812 Z M 59.769531 155.007812 "/></g><g clip-rule="nonzero" clip-path="url(#7179ca604e)"><path style=" stroke:none;fill-rule:nonzero;fill:#14edb9;fill-opacity:1;" d="M 26.785156 160.527344 L 16.039062 160.527344 L 16.039062 171.109375 L 26.785156 171.109375 L 26.785156 181.855469 L 37.367188 181.855469 L 37.367188 171.109375 L 48.109375 171.109375 L 48.109375 160.527344 L 37.367188 160.527344 L 37.367188 149.78125 L 26.785156 149.78125 Z M 26.785156 160.527344 "/></g><g clip-rule="nonzero" clip-path="url(#ec58a37777)"><path style=" stroke:none;fill-rule:nonzero;fill:#d1ff5d;fill-opacity:1;" d="M 59.769531 155.007812 L 68.894531 155.007812 C 83.859375 155.007812 96.03125 167.179688 96.03125 182.144531 L 96.03125 227.527344 L 95.28125 227.527344 L 80.59375 212.402344 L 80.90625 212.402344 L 80.90625 182.144531 C 80.90625 175.523438 75.515625 170.132812 68.894531 170.132812 L 59.769531 170.132812 Z M 59.769531 155.007812 "/></g><g clip-rule="nonzero" clip-path="url(#9ba1963929)"><path style=" stroke:none;fill-rule:nonzero;fill:#0d2329;fill-opacity:1;" d="M 13.828125 184.910156 L 13.828125 147.472656 L 50.691406 147.472656 L 50.691406 184.910156 Z M 13.828125 184.910156 "/></g><g clip-rule="nonzero" clip-path="url(#3bc373d4a0)"><path style=" stroke:none;fill-rule:nonzero;fill:#14edb9;fill-opacity:1;" d="M 41.902344 186.890625 C 41.628906 188.101562 41.488281 189.359375 41.488281 190.648438 C 41.488281 200.125 49.171875 207.808594 58.648438 207.808594 C 68.125 207.808594 75.808594 200.125 75.808594 190.648438 C 75.808594 181.171875 68.125 173.488281 58.648438 173.488281 C 55.367188 173.488281 52.300781 174.410156 49.691406 176.007812 C 52.792969 173.898438 56.539062 172.664062 60.570312 172.664062 C 71.257812 172.664062 79.925781 181.332031 79.925781 192.023438 C 79.925781 202.710938 71.257812 211.378906 60.570312 211.378906 C 49.878906 211.378906 41.214844 202.710938 41.214844 192.023438 C 41.214844 190.246094 41.453125 188.523438 41.902344 186.890625 "/></g><path style=" stroke:none;fill-rule:nonzero;fill:#5aff7a;fill-opacity:1;" d="M 59.144531 191.304688 C 60.050781 193.476562 59.390625 195.480469 58.757812 196.691406 C 58.804688 195.289062 57.492188 192.574219 54.632812 190.308594 C 54.632812 190.308594 57.304688 193.0625 57.992188 195.710938 C 58.480469 197.59375 60.035156 199.027344 61.96875 199.277344 C 62.816406 199.386719 63.695312 199.355469 64.578125 199.171875 C 68.757812 198.289062 71.46875 194.160156 70.617188 189.972656 C 69.777344 185.847656 65.824219 183.144531 61.699219 183.824219 C 61.792969 183.804688 61.890625 183.78125 61.988281 183.761719 C 66.546875 182.847656 70.988281 185.804688 71.902344 190.367188 C 72.816406 194.929688 69.859375 199.367188 65.296875 200.28125 C 62.945312 200.75 60.628906 200.195312 58.808594 198.921875 C 57.941406 198.3125 57.015625 197.796875 56.058594 197.339844 C 54.566406 196.625 52.710938 194.976562 52.464844 191.164062 C 52.226562 187.417969 50.109375 186.164062 50.109375 186.164062 C 50.109375 186.164062 57.046875 186.261719 59.144531 191.304688 "/><path style=" stroke:none;fill-rule:nonzero;fill:#5aff7a;fill-opacity:1;" d="M 64.730469 191.808594 C 64.625 196.484375 60.96875 196.789062 60.96875 196.789062 C 60.121094 194.652344 63.152344 191.257812 63.152344 191.257812 C 61.167969 192.96875 60.304688 194.957031 60.378906 195.960938 C 59.890625 195.109375 59.359375 193.691406 59.941406 192.105469 C 61.300781 188.425781 66.273438 188.152344 66.273438 188.152344 C 66.273438 188.152344 64.792969 189.113281 64.730469 191.808594 "/><g clip-rule="nonzero" clip-path="url(#0189f8605b)"><path style=" stroke:none;fill-rule:nonzero;fill:#14edb9;fill-opacity:1;" d="M 42.113281 176.3125 L 42.113281 170.769531 C 42.113281 170.527344 42.308594 170.332031 42.546875 170.332031 L 49.03125 170.332031 C 49.269531 170.332031 49.464844 170.527344 49.464844 170.769531 L 49.464844 176.3125 C 49.464844 176.554688 49.660156 176.746094 49.898438 176.746094 L 55.445312 176.746094 C 55.683594 176.746094 55.878906 176.941406 55.878906 177.183594 L 55.878906 183.664062 C 55.878906 183.902344 55.683594 184.097656 55.445312 184.097656 L 49.898438 184.097656 C 49.660156 184.097656 49.464844 184.292969 49.464844 184.53125 L 49.464844 190.078125 C 49.464844 190.316406 49.269531 190.511719 49.03125 190.511719 L 42.546875 190.511719 C 42.308594 190.511719 42.113281 190.316406 42.113281 190.078125 L 42.113281 184.53125 C 42.113281 184.292969 41.921875 184.097656 41.679688 184.097656 L 36.132812 184.097656 C 35.894531 184.097656 35.699219 183.902344 35.699219 183.664062 L 35.699219 177.183594 C 35.699219 176.941406 35.894531 176.746094 36.132812 176.746094 L 41.679688 176.746094 C 41.921875 176.746094 42.113281 176.554688 42.113281 176.3125 "/></g><path style=" stroke:none;fill-rule:nonzero;fill:#14edb9;fill-opacity:1;" d="M 51.269531 200.191406 L 51.269531 198.609375 C 51.269531 198.542969 51.324219 198.484375 51.390625 198.484375 L 53.238281 198.484375 C 53.308594 198.484375 53.363281 198.542969 53.363281 198.609375 L 53.363281 200.191406 C 53.363281 200.257812 53.417969 200.3125 53.488281 200.3125 L 55.066406 200.3125 C 55.136719 200.3125 55.191406 200.371094 55.191406 200.4375 L 55.191406 202.285156 C 55.191406 202.355469 55.136719 202.410156 55.066406 202.410156 L 53.488281 202.410156 C 53.417969 202.410156 53.363281 202.464844 53.363281 202.53125 L 53.363281 204.113281 C 53.363281 204.183594 53.308594 204.238281 53.238281 204.238281 L 51.390625 204.238281 C 51.324219 204.238281 51.269531 204.183594 51.269531 204.113281 L 51.269531 202.53125 C 51.269531 202.464844 51.210938 202.410156 51.144531 202.410156 L 49.5625 202.410156 C 49.496094 202.410156 49.441406 202.355469 49.441406 202.285156 L 49.441406 200.4375 C 49.441406 200.371094 49.496094 200.3125 49.5625 200.3125 L 51.144531 200.3125 C 51.210938 200.3125 51.269531 200.257812 51.269531 200.191406 "/><path style=" stroke:none;fill-rule:nonzero;fill:#14edb9;fill-opacity:1;" d="M 62.917969 177.769531 L 62.917969 176.191406 C 62.917969 176.121094 62.972656 176.066406 63.039062 176.066406 L 64.886719 176.066406 C 64.957031 176.066406 65.011719 176.121094 65.011719 176.191406 L 65.011719 177.769531 C 65.011719 177.839844 65.066406 177.894531 65.136719 177.894531 L 66.714844 177.894531 C 66.785156 177.894531 66.839844 177.949219 66.839844 178.019531 L 66.839844 179.867188 C 66.839844 179.933594 66.785156 179.988281 66.714844 179.988281 L 65.136719 179.988281 C 65.066406 179.988281 65.011719 180.042969 65.011719 180.113281 L 65.011719 181.695312 C 65.011719 181.761719 64.957031 181.816406 64.886719 181.816406 L 63.039062 181.816406 C 62.972656 181.816406 62.917969 181.761719 62.917969 181.695312 L 62.917969 180.113281 C 62.917969 180.042969 62.859375 179.988281 62.792969 179.988281 L 61.210938 179.988281 C 61.144531 179.988281 61.089844 179.933594 61.089844 179.867188 L 61.089844 178.019531 C 61.089844 177.949219 61.144531 177.894531 61.210938 177.894531 L 62.792969 177.894531 C 62.859375 177.894531 62.917969 177.839844 62.917969 177.769531 "/><g style="fill:#ffffff;fill-opacity:1;"><g transform="translate(99.80438, 206.447461)"><path style="stroke:none" d="M 4.3125 0 L 4.3125 -44.34375 L 20.71875 -44.34375 C 24.269531 -44.34375 27.207031 -43.75 29.53125 -42.5625 C 31.851562 -41.382812 33.582031 -39.757812 34.71875 -37.6875 C 35.863281 -35.625 36.4375 -33.304688 36.4375 -30.734375 C 36.4375 -28.273438 35.882812 -26.019531 34.78125 -23.96875 C 33.6875 -21.925781 31.976562 -20.28125 29.65625 -19.03125 C 27.332031 -17.789062 24.351562 -17.171875 20.71875 -17.171875 L 12.421875 -17.171875 L 12.421875 0 Z M 12.421875 -23.765625 L 20.21875 -23.765625 C 23.039062 -23.765625 25.070312 -24.382812 26.3125 -25.625 C 27.5625 -26.875 28.1875 -28.578125 28.1875 -30.734375 C 28.1875 -32.929688 27.5625 -34.648438 26.3125 -35.890625 C 25.070312 -37.140625 23.039062 -37.765625 20.21875 -37.765625 L 12.421875 -37.765625 Z M 12.421875 -23.765625 "/></g></g><g style="fill:#ffffff;fill-opacity:1;"><g transform="translate(132.244423, 206.447461)"><path style="stroke:none" d="M 8.484375 -36.3125 C 7.003906 -36.3125 5.789062 -36.753906 4.84375 -37.640625 C 3.894531 -38.523438 3.421875 -39.644531 3.421875 -41 C 3.421875 -42.34375 3.894531 -43.445312 4.84375 -44.3125 C 5.789062 -45.1875 7.003906 -45.625 8.484375 -45.625 C 9.960938 -45.625 11.175781 -45.1875 12.125 -44.3125 C 13.082031 -43.445312 13.5625 -42.34375 13.5625 -41 C 13.5625 -39.644531 13.082031 -38.523438 12.125 -37.640625 C 11.175781 -36.753906 9.960938 -36.3125 8.484375 -36.3125 Z M 4.4375 0 L 4.4375 -31.421875 L 12.546875 -31.421875 L 12.546875 0 Z M 4.4375 0 "/></g></g><g style="fill:#ffffff;fill-opacity:1;"><g transform="translate(143.141867, 206.447461)"><path style="stroke:none" d="M 18.125 0 C 14.820312 0 12.175781 -0.800781 10.1875 -2.40625 C 8.207031 -4.007812 7.21875 -6.863281 7.21875 -10.96875 L 7.21875 -24.640625 L 1.84375 -24.640625 L 1.84375 -31.421875 L 7.21875 -31.421875 L 8.171875 -39.859375 L 15.328125 -39.859375 L 15.328125 -31.421875 L 23.828125 -31.421875 L 23.828125 -24.640625 L 15.328125 -24.640625 L 15.328125 -10.890625 C 15.328125 -9.367188 15.65625 -8.320312 16.3125 -7.75 C 16.96875 -7.1875 18.097656 -6.90625 19.703125 -6.90625 L 23.640625 -6.90625 L 23.640625 0 Z M 18.125 0 "/></g></g><g style="fill:#ffffff;fill-opacity:1;"><g transform="translate(163.79685, 206.447461)"><path style="stroke:none" d="M 19.515625 0.765625 C 16.304688 0.765625 13.472656 0.0664062 11.015625 -1.328125 C 8.566406 -2.722656 6.632812 -4.664062 5.21875 -7.15625 C 3.8125 -9.644531 3.109375 -12.5 3.109375 -15.71875 C 3.109375 -18.925781 3.8125 -21.773438 5.21875 -24.265625 C 6.632812 -26.753906 8.566406 -28.695312 11.015625 -30.09375 C 13.472656 -31.488281 16.304688 -32.1875 19.515625 -32.1875 C 23.523438 -32.1875 26.898438 -31.140625 29.640625 -29.046875 C 32.390625 -26.953125 34.144531 -24.070312 34.90625 -20.40625 L 26.359375 -20.40625 C 25.929688 -21.925781 25.09375 -23.117188 23.84375 -23.984375 C 22.601562 -24.847656 21.140625 -25.28125 19.453125 -25.28125 C 17.210938 -25.28125 15.3125 -24.4375 13.75 -22.75 C 12.1875 -21.0625 11.40625 -18.71875 11.40625 -15.71875 C 11.40625 -12.71875 12.1875 -10.367188 13.75 -8.671875 C 15.3125 -6.984375 17.210938 -6.140625 19.453125 -6.140625 C 21.140625 -6.140625 22.601562 -6.5625 23.84375 -7.40625 C 25.09375 -8.257812 25.929688 -9.46875 26.359375 -11.03125 L 34.90625 -11.03125 C 34.144531 -7.476562 32.390625 -4.625 29.640625 -2.46875 C 26.898438 -0.3125 23.523438 0.765625 19.515625 0.765625 Z M 19.515625 0.765625 "/></g></g><g style="fill:#ffffff;fill-opacity:1;"><g transform="translate(195.793375, 206.447461)"><path style="stroke:none" d="M 4.125 0 L 4.125 -45.625 L 12.234375 -45.625 L 12.234375 -26.609375 C 13.285156 -28.335938 14.707031 -29.695312 16.5 -30.6875 C 18.300781 -31.6875 20.363281 -32.1875 22.6875 -32.1875 C 26.570312 -32.1875 29.578125 -30.960938 31.703125 -28.515625 C 33.835938 -26.066406 34.90625 -22.472656 34.90625 -17.734375 L 34.90625 0 L 26.859375 0 L 26.859375 -16.984375 C 26.859375 -19.679688 26.320312 -21.75 25.25 -23.1875 C 24.175781 -24.625 22.472656 -25.34375 20.140625 -25.34375 C 17.867188 -25.34375 15.984375 -24.539062 14.484375 -22.9375 C 12.984375 -21.332031 12.234375 -19.09375 12.234375 -16.21875 L 12.234375 0 Z M 4.125 0 "/></g></g><g style="fill:#ffffff;fill-opacity:1;"><g transform="translate(228.29678, 206.447461)"><path style="stroke:none" d="M 4.3125 0 L 4.3125 -44.34375 L 19.453125 -44.34375 C 24.648438 -44.34375 28.925781 -43.425781 32.28125 -41.59375 C 35.632812 -39.757812 38.125 -37.179688 39.75 -33.859375 C 41.382812 -30.546875 42.203125 -26.648438 42.203125 -22.171875 C 42.203125 -17.691406 41.382812 -13.796875 39.75 -10.484375 C 38.125 -7.171875 35.632812 -4.59375 32.28125 -2.75 C 28.925781 -0.914062 24.648438 0 19.453125 0 Z M 12.421875 -6.96875 L 19.078125 -6.96875 C 22.785156 -6.96875 25.71875 -7.566406 27.875 -8.765625 C 30.03125 -9.972656 31.570312 -11.707031 32.5 -13.96875 C 33.425781 -16.226562 33.890625 -18.960938 33.890625 -22.171875 C 33.890625 -25.335938 33.425781 -28.0625 32.5 -30.34375 C 31.570312 -32.625 30.03125 -34.378906 27.875 -35.609375 C 25.71875 -36.835938 22.785156 -37.453125 19.078125 -37.453125 L 12.421875 -37.453125 Z M 12.421875 -6.96875 "/></g></g><g style="fill:#ffffff;fill-opacity:1;"><g transform="translate(267.326321, 206.447461)"><path style="stroke:none" d="M 19.390625 0.765625 C 16.222656 0.765625 13.410156 0.0859375 10.953125 -1.265625 C 8.503906 -2.617188 6.582031 -4.519531 5.1875 -6.96875 C 3.800781 -9.414062 3.109375 -12.242188 3.109375 -15.453125 C 3.109375 -18.710938 3.789062 -21.609375 5.15625 -24.140625 C 6.53125 -26.671875 8.429688 -28.644531 10.859375 -30.0625 C 13.296875 -31.476562 16.160156 -32.1875 19.453125 -32.1875 C 22.535156 -32.1875 25.257812 -31.507812 27.625 -30.15625 C 29.988281 -28.800781 31.835938 -26.953125 33.171875 -24.609375 C 34.503906 -22.265625 35.171875 -19.660156 35.171875 -16.796875 C 35.171875 -16.328125 35.15625 -15.835938 35.125 -15.328125 C 35.101562 -14.828125 35.070312 -14.300781 35.03125 -13.75 L 11.15625 -13.75 C 11.320312 -11.300781 12.175781 -9.378906 13.71875 -7.984375 C 15.257812 -6.585938 17.128906 -5.890625 19.328125 -5.890625 C 20.972656 -5.890625 22.351562 -6.257812 23.46875 -7 C 24.59375 -7.738281 25.429688 -8.703125 25.984375 -9.890625 L 34.21875 -9.890625 C 33.625 -7.898438 32.640625 -6.09375 31.265625 -4.46875 C 29.890625 -2.84375 28.195312 -1.5625 26.1875 -0.625 C 24.1875 0.300781 21.921875 0.765625 19.390625 0.765625 Z M 19.453125 -25.59375 C 17.460938 -25.59375 15.707031 -25.03125 14.1875 -23.90625 C 12.664062 -22.789062 11.695312 -21.09375 11.28125 -18.8125 L 26.921875 -18.8125 C 26.796875 -20.882812 26.035156 -22.53125 24.640625 -23.75 C 23.253906 -24.976562 21.523438 -25.59375 19.453125 -25.59375 Z M 19.453125 -25.59375 "/></g></g><g style="fill:#ffffff;fill-opacity:1;"><g transform="translate(299.196121, 206.447461)"><path style="stroke:none" d="M 19.515625 0.765625 C 16.304688 0.765625 13.472656 0.0664062 11.015625 -1.328125 C 8.566406 -2.722656 6.632812 -4.664062 5.21875 -7.15625 C 3.8125 -9.644531 3.109375 -12.5 3.109375 -15.71875 C 3.109375 -18.925781 3.8125 -21.773438 5.21875 -24.265625 C 6.632812 -26.753906 8.566406 -28.695312 11.015625 -30.09375 C 13.472656 -31.488281 16.304688 -32.1875 19.515625 -32.1875 C 23.523438 -32.1875 26.898438 -31.140625 29.640625 -29.046875 C 32.390625 -26.953125 34.144531 -24.070312 34.90625 -20.40625 L 26.359375 -20.40625 C 25.929688 -21.925781 25.09375 -23.117188 23.84375 -23.984375 C 22.601562 -24.847656 21.140625 -25.28125 19.453125 -25.28125 C 17.210938 -25.28125 15.3125 -24.4375 13.75 -22.75 C 12.1875 -21.0625 11.40625 -18.71875 11.40625 -15.71875 C 11.40625 -12.71875 12.1875 -10.367188 13.75 -8.671875 C 15.3125 -6.984375 17.210938 -6.140625 19.453125 -6.140625 C 21.140625 -6.140625 22.601562 -6.5625 23.84375 -7.40625 C 25.09375 -8.257812 25.929688 -9.46875 26.359375 -11.03125 L 34.90625 -11.03125 C 34.144531 -7.476562 32.390625 -4.625 29.640625 -2.46875 C 26.898438 -0.3125 23.523438 0.765625 19.515625 0.765625 Z M 19.515625 0.765625 "/></g></g><g style="fill:#ffffff;fill-opacity:1;"><g transform="translate(331.192647, 206.447461)"><path style="stroke:none" d="M 4.125 0 L 4.125 -45.625 L 12.234375 -45.625 L 12.234375 -18.6875 L 23.375 -31.421875 L 33.015625 -31.421875 L 20.140625 -17.109375 L 35.09375 0 L 24.96875 0 L 12.234375 -15.78125 L 12.234375 0 Z M 4.125 0 "/></g></g><g style="fill:#d1ff5d;fill-opacity:1;"><g transform="translate(168.520935, 223.082555)"><path style="stroke:none" d="M 1.078125 0 L 1.078125 -10.21875 L 4.21875 -10.21875 C 6.019531 -10.21875 7.347656 -9.757812 8.203125 -8.84375 C 9.054688 -7.9375 9.484375 -6.679688 9.484375 -5.078125 C 9.484375 -3.515625 9.054688 -2.273438 8.203125 -1.359375 C 7.347656 -0.453125 6.019531 0 4.21875 0 Z M 2.3125 -1.015625 L 4.1875 -1.015625 C 5.1875 -1.015625 5.976562 -1.175781 6.5625 -1.5 C 7.15625 -1.832031 7.578125 -2.300781 7.828125 -2.90625 C 8.078125 -3.519531 8.203125 -4.242188 8.203125 -5.078125 C 8.203125 -5.941406 8.078125 -6.675781 7.828125 -7.28125 C 7.578125 -7.894531 7.15625 -8.367188 6.5625 -8.703125 C 5.976562 -9.035156 5.1875 -9.203125 4.1875 -9.203125 L 2.3125 -9.203125 Z M 2.3125 -1.015625 "/></g></g><g style="fill:#d1ff5d;fill-opacity:1;"><g transform="translate(189.263483, 223.082555)"><path style="stroke:none" d="M 5.734375 0.171875 C 4.722656 0.171875 3.835938 -0.046875 3.078125 -0.484375 C 2.328125 -0.929688 1.738281 -1.550781 1.3125 -2.34375 C 0.894531 -3.144531 0.6875 -4.066406 0.6875 -5.109375 C 0.6875 -6.148438 0.894531 -7.066406 1.3125 -7.859375 C 1.738281 -8.660156 2.328125 -9.285156 3.078125 -9.734375 C 3.835938 -10.179688 4.722656 -10.40625 5.734375 -10.40625 C 6.742188 -10.40625 7.625 -10.179688 8.375 -9.734375 C 9.132812 -9.285156 9.722656 -8.660156 10.140625 -7.859375 C 10.554688 -7.066406 10.765625 -6.148438 10.765625 -5.109375 C 10.765625 -4.066406 10.554688 -3.144531 10.140625 -2.34375 C 9.722656 -1.550781 9.132812 -0.929688 8.375 -0.484375 C 7.625 -0.046875 6.742188 0.171875 5.734375 0.171875 Z M 5.734375 -0.90625 C 6.484375 -0.90625 7.140625 -1.070312 7.703125 -1.40625 C 8.273438 -1.738281 8.71875 -2.21875 9.03125 -2.84375 C 9.351562 -3.476562 9.515625 -4.234375 9.515625 -5.109375 C 9.515625 -5.984375 9.351562 -6.734375 9.03125 -7.359375 C 8.71875 -7.984375 8.273438 -8.460938 7.703125 -8.796875 C 7.140625 -9.140625 6.484375 -9.3125 5.734375 -9.3125 C 4.984375 -9.3125 4.320312 -9.140625 3.75 -8.796875 C 3.175781 -8.460938 2.726562 -7.984375 2.40625 -7.359375 C 2.09375 -6.734375 1.9375 -5.984375 1.9375 -5.109375 C 1.9375 -4.234375 2.09375 -3.476562 2.40625 -2.84375 C 2.726562 -2.21875 3.175781 -1.738281 3.75 -1.40625 C 4.320312 -1.070312 4.984375 -0.90625 5.734375 -0.90625 Z M 5.734375 -0.90625 "/></g></g><g style="fill:#d1ff5d;fill-opacity:1;"><g transform="translate(211.290101, 223.082555)"><path style="stroke:none" d="M 5.5625 0.171875 C 4.5625 0.171875 3.695312 -0.046875 2.96875 -0.484375 C 2.25 -0.929688 1.6875 -1.550781 1.28125 -2.34375 C 0.882812 -3.132812 0.6875 -4.054688 0.6875 -5.109375 C 0.6875 -6.148438 0.882812 -7.066406 1.28125 -7.859375 C 1.6875 -8.660156 2.25 -9.285156 2.96875 -9.734375 C 3.695312 -10.179688 4.5625 -10.40625 5.5625 -10.40625 C 6.726562 -10.40625 7.679688 -10.125 8.421875 -9.5625 C 9.160156 -9 9.628906 -8.21875 9.828125 -7.21875 L 8.46875 -7.21875 C 8.3125 -7.851562 7.992188 -8.363281 7.515625 -8.75 C 7.035156 -9.132812 6.382812 -9.328125 5.5625 -9.328125 C 4.832031 -9.328125 4.191406 -9.15625 3.640625 -8.8125 C 3.097656 -8.476562 2.675781 -7.992188 2.375 -7.359375 C 2.082031 -6.734375 1.9375 -5.984375 1.9375 -5.109375 C 1.9375 -4.234375 2.082031 -3.476562 2.375 -2.84375 C 2.675781 -2.21875 3.097656 -1.738281 3.640625 -1.40625 C 4.191406 -1.070312 4.832031 -0.90625 5.5625 -0.90625 C 6.382812 -0.90625 7.035156 -1.09375 7.515625 -1.46875 C 7.992188 -1.84375 8.3125 -2.34375 8.46875 -2.96875 L 9.828125 -2.96875 C 9.628906 -1.976562 9.160156 -1.207031 8.421875 -0.65625 C 7.679688 -0.101562 6.726562 0.171875 5.5625 0.171875 Z M 5.5625 0.171875 "/></g></g><g style="fill:#d1ff5d;fill-opacity:1;"><g transform="translate(232.382855, 223.082555)"><path style="stroke:none" d="M 3.484375 0 L 3.484375 -9.21875 L 0.421875 -9.21875 L 0.421875 -10.21875 L 7.75 -10.21875 L 7.75 -9.21875 L 4.703125 -9.21875 L 4.703125 0 Z M 3.484375 0 "/></g></g><g style="fill:#d1ff5d;fill-opacity:1;"><g transform="translate(251.140939, 223.082555)"><path style="stroke:none" d="M 5.734375 0.171875 C 4.722656 0.171875 3.835938 -0.046875 3.078125 -0.484375 C 2.328125 -0.929688 1.738281 -1.550781 1.3125 -2.34375 C 0.894531 -3.144531 0.6875 -4.066406 0.6875 -5.109375 C 0.6875 -6.148438 0.894531 -7.066406 1.3125 -7.859375 C 1.738281 -8.660156 2.328125 -9.285156 3.078125 -9.734375 C 3.835938 -10.179688 4.722656 -10.40625 5.734375 -10.40625 C 6.742188 -10.40625 7.625 -10.179688 8.375 -9.734375 C 9.132812 -9.285156 9.722656 -8.660156 10.140625 -7.859375 C 10.554688 -7.066406 10.765625 -6.148438 10.765625 -5.109375 C 10.765625 -4.066406 10.554688 -3.144531 10.140625 -2.34375 C 9.722656 -1.550781 9.132812 -0.929688 8.375 -0.484375 C 7.625 -0.046875 6.742188 0.171875 5.734375 0.171875 Z M 5.734375 -0.90625 C 6.484375 -0.90625 7.140625 -1.070312 7.703125 -1.40625 C 8.273438 -1.738281 8.71875 -2.21875 9.03125 -2.84375 C 9.351562 -3.476562 9.515625 -4.234375 9.515625 -5.109375 C 9.515625 -5.984375 9.351562 -6.734375 9.03125 -7.359375 C 8.71875 -7.984375 8.273438 -8.460938 7.703125 -8.796875 C 7.140625 -9.140625 6.484375 -9.3125 5.734375 -9.3125 C 4.984375 -9.3125 4.320312 -9.140625 3.75 -8.796875 C 3.175781 -8.460938 2.726562 -7.984375 2.40625 -7.359375 C 2.09375 -6.734375 1.9375 -5.984375 1.9375 -5.109375 C 1.9375 -4.234375 2.09375 -3.476562 2.40625 -2.84375 C 2.726562 -2.21875 3.175781 -1.738281 3.75 -1.40625 C 4.320312 -1.070312 4.984375 -0.90625 5.734375 -0.90625 Z M 5.734375 -0.90625 "/></g></g><g style="fill:#d1ff5d;fill-opacity:1;"><g transform="translate(273.167558, 223.082555)"><path style="stroke:none" d="M 1.078125 0 L 1.078125 -10.21875 L 4.375 -10.21875 C 5.175781 -10.21875 5.828125 -10.085938 6.328125 -9.828125 C 6.835938 -9.566406 7.210938 -9.207031 7.453125 -8.75 C 7.703125 -8.289062 7.828125 -7.785156 7.828125 -7.234375 C 7.828125 -6.585938 7.65625 -6.003906 7.3125 -5.484375 C 6.96875 -4.972656 6.429688 -4.609375 5.703125 -4.390625 L 7.9375 0 L 6.484375 0 L 4.40625 -4.21875 L 2.3125 -4.21875 L 2.3125 0 Z M 2.3125 -5.1875 L 4.296875 -5.1875 C 5.085938 -5.1875 5.660156 -5.375 6.015625 -5.75 C 6.378906 -6.132812 6.5625 -6.625 6.5625 -7.21875 C 6.5625 -7.820312 6.382812 -8.300781 6.03125 -8.65625 C 5.675781 -9.007812 5.09375 -9.1875 4.28125 -9.1875 L 2.3125 -9.1875 Z M 2.3125 -5.1875 "/></g></g></g></svg>