<svg xmlns="http://www.w3.org/2000/svg" xmlns:xlink="http://www.w3.org/1999/xlink" width="500" zoomAndPan="magnify" viewBox="0 0 375 374.999991" height="500" preserveAspectRatio="xMidYMid meet" version="1.0"><defs><g/><clipPath id="208936cf3f"><path d="M 209 137 L 251.488281 137 L 251.488281 182 L 209 182 Z M 209 137 " clip-rule="nonzero"/></clipPath><clipPath id="3075a67ee0"><path d="M 125 91.769531 L 173 91.769531 L 173 138 L 125 138 Z M 125 91.769531 " clip-rule="nonzero"/></clipPath><clipPath id="b29f6f3c14"><path d="M 123.238281 127 L 157 127 L 157 203 L 123.238281 203 Z M 123.238281 127 " clip-rule="nonzero"/></clipPath></defs><rect x="-37.5" width="450" fill="#ffffff" y="-37.499999" height="449.999989" fill-opacity="1"/><rect x="-37.5" width="450" fill="#ffffff" y="-37.499999" height="449.999989" fill-opacity="1"/><path fill="#0a429b" d="M 163.730469 215.367188 C 165.960938 216.207031 168.953125 217.308594 171.246094 217.949219 C 173.882812 218.601562 177.160156 219.410156 181.25 219.882812 C 181.894531 219.945312 181.933594 219.945312 182.152344 219.929688 C 181.855469 219.449219 176.4375 218.0625 174.613281 217.839844 C 170.234375 217.316406 167.351562 216.789062 163.730469 215.367188 Z M 163.730469 215.367188 " fill-opacity="1" fill-rule="nonzero"/><path fill="#0a429b" d="M 202.878906 216.578125 C 202.574219 216.402344 201.371094 215.871094 198.699219 216.394531 C 195.804688 217.015625 195.347656 218.085938 196.140625 218.59375 C 196.265625 218.671875 197.4375 219.347656 200.515625 218.742188 C 203.5625 218.09375 203.726562 217.070312 202.878906 216.578125 Z M 202.878906 216.578125 " fill-opacity="1" fill-rule="nonzero"/><path fill="#0a429b" d="M 209.78125 214.878906 C 209.578125 214.785156 209.152344 214.722656 208.25 214.988281 C 206.890625 215.414062 206.359375 216.042969 206.421875 216.339844 C 206.4375 216.394531 206.59375 216.851562 208.085938 216.410156 C 209.625 215.925781 210.339844 215.140625 209.78125 214.878906 Z M 209.78125 214.878906 " fill-opacity="1" fill-rule="nonzero"/><path fill="#0a429b" d="M 140.917969 135.539062 C 140.753906 135.273438 140.460938 134.910156 139.984375 134.644531 C 137.4375 133.246094 133.953125 131.332031 132.726562 127.136719 C 132.175781 125.238281 132.097656 122.230469 134.5 118.292969 C 132.332031 121.554688 131.507812 122.871094 130.339844 125.253906 C 127.792969 130.75 127.464844 131.457031 126.011719 136.003906 L 125.683594 137.109375 C 125.070312 140.125 123.640625 147.1875 134.328125 152.558594 C 140.785156 154.199219 143.164062 139.105469 140.917969 135.539062 Z M 140.917969 135.539062 " fill-opacity="1" fill-rule="nonzero"/><path fill="#0a429b" d="M 163.203125 204.292969 C 161.878906 202.707031 158.59375 199.847656 154.628906 199.148438 C 144.253906 197.320312 136.894531 194.832031 132.277344 188.085938 L 133.496094 190.078125 C 137.179688 195.382812 137.484375 195.820312 140.492188 199.160156 C 141.539062 200.21875 142.902344 201.664062 143.980469 202.683594 C 147.9375 205.902344 151.886719 207.960938 161.421875 209.625 C 166.800781 209.980469 164.445312 205.785156 163.203125 204.292969 Z M 163.203125 204.292969 " fill-opacity="1" fill-rule="nonzero"/><path fill="#0a429b" d="M 205.148438 196.363281 C 204.058594 195.835938 202.226562 195.339844 199.636719 195.929688 C 193.46875 197.34375 185.789062 199.101562 174.183594 199.839844 C 167.132812 200.816406 169.125 205.238281 170.375 206.707031 C 172.527344 209.242188 175.777344 213.066406 201.84375 206.824219 C 209.253906 204.425781 209.316406 198.378906 205.148438 196.363281 Z M 205.148438 196.363281 " fill-opacity="1" fill-rule="nonzero"/><path fill="#0a429b" d="M 228.832031 186.757812 C 227.515625 186.269531 226.203125 186.6875 225.496094 186.914062 C 222.488281 187.867188 219.722656 189.40625 216.808594 190.574219 C 211.691406 192.773438 210.246094 197.125 210.859375 199.519531 C 211.4375 201.78125 213.511719 202.511719 215.105469 202.457031 C 216.386719 202.410156 216.863281 202.386719 224.507812 199.007812 C 230.828125 195.789062 232.753906 188.21875 228.832031 186.757812 Z M 228.832031 186.757812 " fill-opacity="1" fill-rule="nonzero"/><path fill="#0a429b" d="M 240.378906 180.726562 C 239.554688 180.53125 238.734375 181.097656 237.933594 181.644531 C 235.132812 183.703125 233.84375 187.308594 233.828125 189.214844 C 233.820312 189.828125 233.953125 192.804688 237.164062 190.621094 C 241.109375 187.691406 242.765625 181.285156 240.378906 180.726562 Z M 240.378906 180.726562 " fill-opacity="1" fill-rule="nonzero"/><path fill="#0a429b" d="M 149.179688 140.203125 C 144.585938 140.203125 142.667969 146.007812 142.464844 148.8125 C 142.054688 154.464844 141.726562 158.933594 168.410156 156.917969 C 177.144531 155.125 175.566406 144.203125 170.757812 141.367188 C 169.425781 140.582031 169.425781 140.582031 164.171875 140.917969 C 162.96875 141.003906 156.59375 141.328125 149.179688 140.203125 Z M 149.179688 140.203125 " fill-opacity="1" fill-rule="nonzero"/><path fill="#0a429b" d="M 183.550781 153.648438 C 185.3125 154.066406 185.453125 154.097656 194.5 151.640625 C 202.085938 148.953125 199.414062 138.878906 193.621094 136.433594 C 192.042969 135.765625 192.042969 135.765625 182.90625 137.941406 C 178.480469 139.222656 177.550781 144.585938 178.3125 147.8125 C 179.121094 151.175781 181.519531 153.164062 183.550781 153.648438 Z M 183.550781 153.648438 " fill-opacity="1" fill-rule="nonzero"/><path fill="#0a429b" d="M 206.601562 133.285156 C 205.15625 132.847656 204.324219 133.207031 203.445312 133.578125 C 200.570312 135.039062 200.929688 138.886719 202.09375 141.15625 C 202.351562 141.664062 204.753906 146.023438 209.035156 144.195312 C 213.722656 141.8125 211.382812 134.714844 206.601562 133.285156 Z M 206.601562 133.285156 " fill-opacity="1" fill-rule="nonzero"/><path fill="#0a429b" d="M 213.90625 135.546875 C 214.078125 135.792969 215.617188 137.925781 217.546875 136.828125 C 219.636719 135.4375 217.972656 131.761719 215.578125 131.210938 C 214.816406 131.03125 214.398438 131.269531 213.992188 131.496094 C 212.648438 132.40625 213.128906 134.410156 213.90625 135.546875 Z M 213.90625 135.546875 " fill-opacity="1" fill-rule="nonzero"/><path fill="#1784ff" d="M 195.761719 163.605469 C 173.289062 168.492188 160.464844 176.5 154.824219 180.835938 C 133 197.601562 148.636719 208.101562 152.710938 208.722656 C 152.6875 208.628906 152.648438 208.503906 152.625 208.410156 C 152.4375 208.070312 152.1875 207.617188 152.003906 207.285156 C 152.980469 207.378906 155.429688 208.753906 156.355469 209.738281 C 158.328125 212.910156 161.328125 214.277344 163.738281 215.375 C 165.96875 216.222656 168.976562 217.25 171.253906 217.957031 C 173.601562 218.601562 175.714844 219.019531 177.628906 219.339844 C 174.921875 218.792969 171.527344 217.753906 169.007812 215.632812 C 167.226562 214.140625 166.792969 212.625 166.496094 211.628906 C 166.109375 210.300781 167.082031 209.039062 166.699219 207.710938 C 166.402344 206.6875 157.433594 200.203125 155.640625 202.683594 C 155.421875 203.625 155.179688 204.890625 155.023438 205.847656 C 153.546875 205.785156 151.261719 204.285156 150.734375 203.03125 C 151.722656 187.722656 180.246094 176.421875 193.910156 173.34375 C 198.828125 172.230469 200.492188 171.859375 200.320312 167.980469 C 200.246094 166.332031 199.203125 163.324219 195.761719 163.605469 Z M 195.761719 163.605469 " fill-opacity="1" fill-rule="nonzero"/><g clip-path="url(#208936cf3f)"><path fill="#1784ff" d="M 243.371094 153.25 C 246.488281 154.84375 246.996094 155.257812 249.117188 156.996094 C 249.257812 157.113281 249.488281 157.253906 249.675781 157.253906 C 251.480469 157.253906 252.558594 148.984375 249.839844 145.582031 C 242.789062 139.355469 228.488281 136.796875 226.265625 138.195312 C 223.007812 140.242188 223.367188 148.097656 229 149.519531 C 232.632812 150.042969 232.632812 150.042969 233.058594 150.390625 C 234.722656 151.789062 234.574219 156.75 231.652344 156.703125 C 231.496094 156.679688 216.308594 154.246094 212.820312 156.851562 C 208.507812 160.066406 208.460938 170.445312 215.507812 171.214844 C 238.71875 170.644531 243.574219 178.875 244.054688 179.816406 C 244.957031 181.589844 245.734375 183.121094 248.441406 177.8125 C 249.730469 175.285156 251.410156 170.476562 250.742188 167.574219 C 248.882812 163.511719 245.503906 161.496094 244.515625 160.976562 C 241.964844 159.640625 241.964844 159.640625 241.742188 159.28125 C 240.621094 157.542969 241.25 152.730469 243.371094 153.25 Z M 243.371094 153.25 " fill-opacity="1" fill-rule="nonzero"/></g><g clip-path="url(#3075a67ee0)"><path fill="#33b0ef" d="M 152.492188 113.503906 C 157.339844 111.101562 159.058594 107.039062 159.238281 106.578125 C 160.09375 104.394531 160.070312 100.601562 154.488281 102.824219 C 150.105469 104.921875 150.105469 104.921875 149.703125 104.882812 C 149.429688 103.570312 152.476562 101.488281 153.238281 101.046875 C 160.007812 97.53125 164.515625 96.101562 168.875 94.71875 C 171.511719 93.878906 172.667969 92.8125 172.800781 92.300781 C 172.800781 92.207031 172.746094 92.089844 172.714844 92 C 172.242188 91.765625 171.6875 91.765625 169.628906 92.355469 C 165.78125 93.574219 164.8125 93.957031 161.523438 95.378906 C 160.636719 95.792969 159.464844 96.375 158.585938 96.808594 C 156.773438 97.75 156.773438 97.75 153.511719 99.730469 C 151.269531 101.175781 141.238281 108.492188 135.460938 116.855469 C 133.394531 119.777344 133.277344 119.976562 130.347656 125.261719 C 128.257812 129.515625 128.046875 130.128906 126.019531 136.011719 L 125.691406 137.117188 C 128.078125 129.070312 137.09375 121.128906 152.492188 113.503906 Z M 152.492188 113.503906 " fill-opacity="1" fill-rule="nonzero"/></g><path fill="#33b0ef" d="M 169.28125 99.21875 C 166.535156 100.035156 165.199219 101.457031 164.5625 102.515625 C 162.773438 105.453125 165.089844 108.148438 169.917969 106.890625 C 174.378906 105.5625 175.351562 102.824219 175.242188 101.566406 C 175.109375 100.089844 173.382812 98.144531 169.28125 99.21875 Z M 169.28125 99.21875 " fill-opacity="1" fill-rule="nonzero"/><path fill="#33b0ef" d="M 183.703125 101.339844 C 185.9375 100.929688 186.207031 99.722656 186.035156 99.148438 C 185.8125 98.378906 184.542969 97.4375 182.4375 97.757812 C 182.042969 97.828125 180.992188 98.023438 180.402344 98.800781 C 179.382812 100.128906 181.007812 101.753906 183.703125 101.339844 Z M 183.703125 101.339844 " fill-opacity="1" fill-rule="nonzero"/><g clip-path="url(#b29f6f3c14)"><path fill="#4bc7f7" d="M 146.148438 182.015625 C 146.375 181.753906 146.980469 181.046875 147.183594 179.582031 C 147.867188 174.570312 142.402344 164.542969 137.21875 168.578125 C 134.070312 172.042969 134.070312 172.042969 133.992188 172.058594 C 131.988281 172.449219 129.160156 166.652344 131.054688 163.207031 C 136.722656 155.933594 143.367188 151.6875 150.253906 147.625 C 154.871094 144.894531 156.726562 138.871094 156.183594 134.316406 C 156.167969 134.21875 154.855469 124.199219 145.917969 128.0625 C 131.171875 136.789062 124.183594 144.671875 123.238281 153.617188 L 123.335938 158.699219 C 123.640625 163.121094 123.71875 163.527344 125.078125 170.289062 C 125.585938 174.238281 130.078125 184.699219 132.277344 188.085938 L 133.496094 190.078125 C 135.976562 193.871094 136.402344 194.375 140.492188 199.160156 C 141.5 200.257812 142.941406 201.625 143.980469 202.683594 C 138.207031 196.699219 138.851562 190.519531 146.148438 182.015625 Z M 146.148438 182.015625 " fill-opacity="1" fill-rule="nonzero"/></g><path fill="#17a4fc" d="M 155.351562 155.335938 C 147.386719 159.773438 146.902344 160.042969 146.117188 162.632812 C 144.222656 168.882812 150.371094 177.058594 156.253906 173.800781 C 163.777344 169.160156 163.777344 169.160156 164.164062 168.570312 C 165.78125 166.121094 165.585938 162.929688 164.863281 160.75 C 163.707031 157.246094 159.984375 153.242188 155.351562 155.335938 Z M 155.351562 155.335938 " fill-opacity="1" fill-rule="nonzero"/><path fill="#4bc7f7" d="M 209.890625 108.761719 C 215.285156 108.769531 215.414062 108.855469 216.039062 109.269531 C 216.277344 109.429688 217.941406 110.992188 216.054688 111.265625 C 207.285156 110.929688 170.957031 112.867188 165.253906 122.054688 C 161.640625 127.867188 164.78125 138.359375 175.707031 136.183594 C 198.519531 129.578125 218.003906 128.117188 235.273438 131.714844 C 235.800781 131.824219 236.78125 132.023438 237.769531 131.628906 C 242.578125 129.695312 238.824219 116.339844 229.15625 113.007812 C 222.125 111.4375 222.125 111.4375 221.984375 109.984375 C 222.070312 109.875 222.191406 109.734375 222.277344 109.632812 C 222.402344 109.625 222.566406 109.617188 222.691406 109.609375 C 226.34375 110.246094 229.753906 111.933594 233.492188 112.214844 C 235.375 112.355469 234.652344 110.417969 233.097656 108.4375 C 233.058594 108.390625 229.09375 103.367188 223.640625 101.03125 C 217.769531 98.945312 202.328125 96.847656 199.699219 99.28125 C 197.050781 101.777344 200.679688 108.09375 209.890625 108.761719 Z M 209.890625 108.761719 " fill-opacity="1" fill-rule="nonzero"/><g fill="#000000" fill-opacity="1"><g transform="translate(98.977146, 259.909905)"><g><path d="M 8.640625 -11.09375 C 6.097656 -11.4375 4.296875 -12.144531 3.234375 -13.21875 C 2.179688 -14.300781 1.65625 -15.613281 1.65625 -17.15625 L 1.65625 -17.453125 C 1.65625 -19.421875 2.320312 -20.957031 3.65625 -22.0625 C 5 -23.175781 6.78125 -23.734375 9 -23.734375 C 11.625 -23.734375 13.507812 -23.082031 14.65625 -21.78125 C 15.800781 -20.476562 16.375 -18.617188 16.375 -16.203125 L 16.375 -15.484375 L 14.21875 -15.484375 C 14.21875 -17.703125 13.804688 -19.304688 12.984375 -20.296875 C 12.171875 -21.285156 10.875 -21.78125 9.09375 -21.78125 L 8.875 -21.78125 C 7.457031 -21.78125 6.269531 -21.421875 5.3125 -20.703125 C 4.351562 -19.984375 3.875 -18.992188 3.875 -17.734375 L 3.875 -17.484375 C 3.875 -16.671875 4.035156 -15.957031 4.359375 -15.34375 C 4.691406 -14.738281 5.265625 -14.234375 6.078125 -13.828125 C 6.890625 -13.429688 8.015625 -13.132812 9.453125 -12.9375 C 12.015625 -12.59375 13.851562 -11.894531 14.96875 -10.84375 C 16.09375 -9.789062 16.65625 -8.363281 16.65625 -6.5625 L 16.65625 -6.265625 C 16.65625 -4.210938 15.960938 -2.597656 14.578125 -1.421875 C 13.203125 -0.253906 11.34375 0.328125 9 0.328125 C 6.519531 0.328125 4.628906 -0.335938 3.328125 -1.671875 C 2.023438 -3.015625 1.375 -4.894531 1.375 -7.3125 L 1.375 -7.625 L 3.546875 -7.625 C 3.546875 -5.5625 4.046875 -4.046875 5.046875 -3.078125 C 6.046875 -2.109375 7.332031 -1.625 8.90625 -1.625 L 9.125 -1.625 C 10.71875 -1.625 12 -2.015625 12.96875 -2.796875 C 13.945312 -3.585938 14.4375 -4.695312 14.4375 -6.125 L 14.4375 -6.390625 C 14.4375 -7.765625 13.976562 -8.820312 13.0625 -9.5625 C 12.15625 -10.3125 10.679688 -10.820312 8.640625 -11.09375 Z M 8.640625 -11.09375 "/></g></g></g><g fill="#000000" fill-opacity="1"><g transform="translate(118.807124, 259.909905)"><g><path d="M 8.796875 -21.453125 L 8.796875 0 L 6.625 0 L 6.625 -21.453125 L 0.6875 -21.453125 L 0.6875 -23.40625 L 14.765625 -23.40625 L 14.765625 -21.453125 Z M 8.796875 -21.453125 "/></g></g></g><g fill="#000000" fill-opacity="1"><g transform="translate(136.0571, 259.909905)"><g><path d="M 9.5625 0.328125 C 7.90625 0.328125 6.519531 0.0859375 5.40625 -0.390625 C 4.300781 -0.867188 3.46875 -1.660156 2.90625 -2.765625 C 2.34375 -3.878906 2.0625 -5.378906 2.0625 -7.265625 L 2.0625 -23.40625 L 4.234375 -23.40625 L 4.234375 -7.40625 C 4.234375 -5.925781 4.425781 -4.765625 4.8125 -3.921875 C 5.207031 -3.085938 5.796875 -2.492188 6.578125 -2.140625 C 7.367188 -1.796875 8.363281 -1.625 9.5625 -1.625 C 10.769531 -1.625 11.769531 -1.796875 12.5625 -2.140625 C 13.363281 -2.492188 13.957031 -3.085938 14.34375 -3.921875 C 14.738281 -4.765625 14.9375 -5.925781 14.9375 -7.40625 L 14.9375 -23.40625 L 17.09375 -23.40625 L 17.09375 -7.265625 C 17.09375 -5.378906 16.8125 -3.878906 16.25 -2.765625 C 15.695312 -1.660156 14.859375 -0.867188 13.734375 -0.390625 C 12.617188 0.0859375 11.226562 0.328125 9.5625 0.328125 Z M 9.5625 0.328125 "/></g></g></g><g fill="#000000" fill-opacity="1"><g transform="translate(157.02708, 259.909905)"><g><path d="M 17.453125 -11.09375 C 17.453125 -8.394531 17.09375 -6.234375 16.375 -4.609375 C 15.65625 -2.992188 14.617188 -1.820312 13.265625 -1.09375 C 11.921875 -0.363281 10.300781 0 8.40625 0 L 2.21875 0 L 2.21875 -23.40625 L 8.40625 -23.40625 C 10.300781 -23.40625 11.921875 -23.039062 13.265625 -22.3125 C 14.617188 -21.59375 15.65625 -20.414062 16.375 -18.78125 C 17.09375 -17.15625 17.453125 -14.992188 17.453125 -12.296875 Z M 4.375 -1.953125 L 8.21875 -1.953125 C 9.71875 -1.953125 10.992188 -2.25 12.046875 -2.84375 C 13.097656 -3.445312 13.890625 -4.414062 14.421875 -5.75 C 14.960938 -7.09375 15.234375 -8.875 15.234375 -11.09375 L 15.234375 -12.296875 C 15.234375 -14.515625 14.960938 -16.296875 14.421875 -17.640625 C 13.890625 -18.984375 13.097656 -19.953125 12.046875 -20.546875 C 10.992188 -21.148438 9.71875 -21.453125 8.21875 -21.453125 L 4.375 -21.453125 Z M 4.375 -1.953125 "/></g></g></g><g fill="#000000" fill-opacity="1"><g transform="translate(177.997061, 259.909905)"><g><path d="M 9.75 -7.078125 L 9.75 0 L 7.59375 0 L 7.59375 -7.078125 L 0.625 -23.40625 L 2.96875 -23.40625 L 8.671875 -9.75 L 14.34375 -23.40625 L 16.703125 -23.40625 Z M 9.75 -7.078125 "/></g></g></g><g fill="#000000" fill-opacity="1"><g transform="translate(197.107033, 259.909905)"><g><path d="M 14.796875 -23.40625 L 16.953125 -23.40625 L 16.953125 0 L 14.796875 0 L 14.796875 -10.984375 L 4.375 -10.984375 L 4.375 0 L 2.21875 0 L 2.21875 -23.40625 L 4.375 -23.40625 L 4.375 -12.90625 L 14.796875 -12.90625 Z M 14.796875 -23.40625 "/></g></g></g><g fill="#000000" fill-opacity="1"><g transform="translate(218.077014, 259.909905)"><g><path d="M 9.5625 0.328125 C 7.90625 0.328125 6.519531 0.0859375 5.40625 -0.390625 C 4.300781 -0.867188 3.46875 -1.660156 2.90625 -2.765625 C 2.34375 -3.878906 2.0625 -5.378906 2.0625 -7.265625 L 2.0625 -23.40625 L 4.234375 -23.40625 L 4.234375 -7.40625 C 4.234375 -5.925781 4.425781 -4.765625 4.8125 -3.921875 C 5.207031 -3.085938 5.796875 -2.492188 6.578125 -2.140625 C 7.367188 -1.796875 8.363281 -1.625 9.5625 -1.625 C 10.769531 -1.625 11.769531 -1.796875 12.5625 -2.140625 C 13.363281 -2.492188 13.957031 -3.085938 14.34375 -3.921875 C 14.738281 -4.765625 14.9375 -5.925781 14.9375 -7.40625 L 14.9375 -23.40625 L 17.09375 -23.40625 L 17.09375 -7.265625 C 17.09375 -5.378906 16.8125 -3.878906 16.25 -2.765625 C 15.695312 -1.660156 14.859375 -0.867188 13.734375 -0.390625 C 12.617188 0.0859375 11.226562 0.328125 9.5625 0.328125 Z M 9.5625 0.328125 "/></g></g></g><g fill="#000000" fill-opacity="1"><g transform="translate(239.046995, 259.909905)"><g><path d="M 2.21875 -23.40625 L 8.15625 -23.40625 C 9.457031 -23.40625 10.644531 -23.207031 11.71875 -22.8125 C 12.800781 -22.425781 13.660156 -21.800781 14.296875 -20.9375 C 14.941406 -20.082031 15.265625 -18.941406 15.265625 -17.515625 L 15.265625 -16.921875 C 15.265625 -15.597656 14.9375 -14.550781 14.28125 -13.78125 C 13.632812 -13.007812 12.804688 -12.445312 11.796875 -12.09375 C 12.972656 -11.726562 13.945312 -11.125 14.71875 -10.28125 C 15.488281 -9.445312 15.875 -8.28125 15.875 -6.78125 L 15.875 -6.1875 C 15.875 -4.695312 15.539062 -3.5 14.875 -2.59375 C 14.21875 -1.6875 13.34375 -1.023438 12.25 -0.609375 C 11.164062 -0.203125 9.960938 0 8.640625 0 L 2.21875 0 Z M 8.796875 -11.046875 L 4.375 -11.046875 L 4.375 -1.953125 L 8.796875 -1.953125 C 9.671875 -1.953125 10.476562 -2.097656 11.21875 -2.390625 C 11.957031 -2.691406 12.546875 -3.15625 12.984375 -3.78125 C 13.429688 -4.414062 13.65625 -5.242188 13.65625 -6.265625 L 13.65625 -6.71875 C 13.65625 -7.738281 13.429688 -8.566406 12.984375 -9.203125 C 12.546875 -9.847656 11.957031 -10.316406 11.21875 -10.609375 C 10.476562 -10.898438 9.671875 -11.046875 8.796875 -11.046875 Z M 8.25 -21.453125 L 4.375 -21.453125 L 4.375 -12.984375 L 8.25 -12.984375 C 9.125 -12.984375 9.921875 -13.113281 10.640625 -13.375 C 11.367188 -13.632812 11.953125 -14.0625 12.390625 -14.65625 C 12.828125 -15.25 13.046875 -16.023438 13.046875 -16.984375 L 13.046875 -17.453125 C 13.046875 -18.441406 12.828125 -19.222656 12.390625 -19.796875 C 11.953125 -20.378906 11.367188 -20.800781 10.640625 -21.0625 C 9.921875 -21.320312 9.125 -21.453125 8.25 -21.453125 Z M 8.25 -21.453125 "/></g></g></g><g fill="#000000" fill-opacity="1"><g transform="translate(258.426968, 259.909905)"><g><path d="M 2.21875 -23.40625 L 8.15625 -23.40625 C 9.457031 -23.40625 10.644531 -23.207031 11.71875 -22.8125 C 12.800781 -22.425781 13.660156 -21.800781 14.296875 -20.9375 C 14.941406 -20.082031 15.265625 -18.941406 15.265625 -17.515625 L 15.265625 -16.921875 C 15.265625 -15.597656 14.9375 -14.550781 14.28125 -13.78125 C 13.632812 -13.007812 12.804688 -12.445312 11.796875 -12.09375 C 12.972656 -11.726562 13.945312 -11.125 14.71875 -10.28125 C 15.488281 -9.445312 15.875 -8.28125 15.875 -6.78125 L 15.875 -6.1875 C 15.875 -4.695312 15.539062 -3.5 14.875 -2.59375 C 14.21875 -1.6875 13.34375 -1.023438 12.25 -0.609375 C 11.164062 -0.203125 9.960938 0 8.640625 0 L 2.21875 0 Z M 8.796875 -11.046875 L 4.375 -11.046875 L 4.375 -1.953125 L 8.796875 -1.953125 C 9.671875 -1.953125 10.476562 -2.097656 11.21875 -2.390625 C 11.957031 -2.691406 12.546875 -3.15625 12.984375 -3.78125 C 13.429688 -4.414062 13.65625 -5.242188 13.65625 -6.265625 L 13.65625 -6.71875 C 13.65625 -7.738281 13.429688 -8.566406 12.984375 -9.203125 C 12.546875 -9.847656 11.957031 -10.316406 11.21875 -10.609375 C 10.476562 -10.898438 9.671875 -11.046875 8.796875 -11.046875 Z M 8.25 -21.453125 L 4.375 -21.453125 L 4.375 -12.984375 L 8.25 -12.984375 C 9.125 -12.984375 9.921875 -13.113281 10.640625 -13.375 C 11.367188 -13.632812 11.953125 -14.0625 12.390625 -14.65625 C 12.828125 -15.25 13.046875 -16.023438 13.046875 -16.984375 L 13.046875 -17.453125 C 13.046875 -18.441406 12.828125 -19.222656 12.390625 -19.796875 C 11.953125 -20.378906 11.367188 -20.800781 10.640625 -21.0625 C 9.921875 -21.320312 9.125 -21.453125 8.25 -21.453125 Z M 8.25 -21.453125 "/></g></g></g><g fill="#ababab" fill-opacity="1"><g transform="translate(123.711141, 279.070498)"><g><path d="M 0.609375 -8.5 L 5.765625 -8.5 L 5.765625 -6.96875 L 2.375 -6.96875 L 2.375 -5.09375 L 5.21875 -5.09375 L 5.21875 -3.578125 L 2.375 -3.578125 L 2.375 0 L 0.609375 0 Z M 0.609375 -8.5 "/></g></g></g><g fill="#ababab" fill-opacity="1"><g transform="translate(133.108731, 279.070498)"><g><path d="M 2.421875 -8.5 L 2.421875 0 L 0.671875 0 L 0.671875 -8.5 Z M 2.421875 -8.5 "/></g></g></g><g fill="#ababab" fill-opacity="1"><g transform="translate(139.610451, 279.070498)"><g><path d="M 6.828125 -8.5 L 6.828125 0 L 4.96875 0 L 2.21875 -5.265625 L 2.28125 -3.5625 L 2.28125 0 L 0.609375 0 L 0.609375 -8.5 L 2.46875 -8.5 L 5.203125 -3.21875 L 5.15625 -4.9375 L 5.15625 -8.5 Z M 6.828125 -8.5 "/></g></g></g><g fill="#ababab" fill-opacity="1"><g transform="translate(150.466865, 279.070498)"><g><path d="M 6.796875 -4.03125 C 6.796875 -3.050781 6.671875 -2.265625 6.421875 -1.671875 C 6.179688 -1.085938 5.796875 -0.660156 5.265625 -0.390625 C 4.734375 -0.128906 4.050781 0 3.21875 0 L 0.609375 0 L 0.609375 -8.5 L 3.21875 -8.5 C 4.050781 -8.5 4.734375 -8.363281 5.265625 -8.09375 C 5.796875 -7.832031 6.179688 -7.40625 6.421875 -6.8125 C 6.671875 -6.226562 6.796875 -5.445312 6.796875 -4.46875 Z M 2.375 -1.53125 L 3.109375 -1.53125 C 3.609375 -1.53125 3.992188 -1.617188 4.265625 -1.796875 C 4.535156 -1.972656 4.722656 -2.25 4.828125 -2.625 C 4.941406 -3 5 -3.46875 5 -4.03125 L 5 -4.46875 C 5 -5.03125 4.941406 -5.492188 4.828125 -5.859375 C 4.722656 -6.234375 4.535156 -6.507812 4.265625 -6.6875 C 3.992188 -6.875 3.609375 -6.96875 3.109375 -6.96875 L 2.375 -6.96875 Z M 2.375 -1.53125 "/></g></g></g><g fill="#ababab" fill-opacity="1"><g transform="translate(161.105543, 279.070498)"><g/></g></g><g fill="#ababab" fill-opacity="1"><g transform="translate(166.703661, 279.070498)"><g><path d="M 4.296875 -2.609375 L 4.296875 0 L 2.53125 0 L 2.53125 -2.609375 L 0.09375 -8.5 L 2.015625 -8.5 L 3.40625 -4.78125 L 4.796875 -8.5 L 6.71875 -8.5 Z M 4.296875 -2.609375 "/></g></g></g><g fill="#ababab" fill-opacity="1"><g transform="translate(176.928647, 279.070498)"><g><path d="M 3.65625 0.140625 C 2.5625 0.140625 1.75 -0.1875 1.21875 -0.84375 C 0.6875 -1.5 0.421875 -2.5625 0.421875 -4.03125 L 0.421875 -4.46875 C 0.421875 -5.9375 0.6875 -7 1.21875 -7.65625 C 1.75 -8.3125 2.5625 -8.640625 3.65625 -8.640625 C 4.757812 -8.640625 5.578125 -8.3125 6.109375 -7.65625 C 6.640625 -7 6.90625 -5.9375 6.90625 -4.46875 L 6.90625 -4.03125 C 6.90625 -2.5625 6.640625 -1.5 6.109375 -0.84375 C 5.578125 -0.1875 4.757812 0.140625 3.65625 0.140625 Z M 3.609375 -1.390625 L 3.71875 -1.390625 C 4.257812 -1.390625 4.625 -1.613281 4.8125 -2.0625 C 5.007812 -2.519531 5.109375 -3.175781 5.109375 -4.03125 L 5.109375 -4.46875 C 5.109375 -5.3125 5.007812 -5.960938 4.8125 -6.421875 C 4.625 -6.878906 4.257812 -7.109375 3.71875 -7.109375 L 3.609375 -7.109375 C 3.066406 -7.109375 2.695312 -6.878906 2.5 -6.421875 C 2.300781 -5.960938 2.203125 -5.3125 2.203125 -4.46875 L 2.203125 -4.03125 C 2.203125 -3.175781 2.300781 -2.519531 2.5 -2.0625 C 2.695312 -1.613281 3.066406 -1.390625 3.609375 -1.390625 Z M 3.609375 -1.390625 "/></g></g></g><g fill="#ababab" fill-opacity="1"><g transform="translate(187.676194, 279.070498)"><g><path d="M 3.609375 0.140625 C 2.835938 0.140625 2.226562 0.0351562 1.78125 -0.171875 C 1.34375 -0.390625 1.03125 -0.707031 0.84375 -1.125 C 0.65625 -1.550781 0.5625 -2.070312 0.5625 -2.6875 L 0.5625 -8.5 L 2.3125 -8.5 L 2.3125 -2.75 C 2.3125 -2.289062 2.398438 -1.945312 2.578125 -1.71875 C 2.765625 -1.5 3.109375 -1.390625 3.609375 -1.390625 C 4.109375 -1.390625 4.445312 -1.5 4.625 -1.71875 C 4.8125 -1.945312 4.90625 -2.289062 4.90625 -2.75 L 4.90625 -8.5 L 6.671875 -8.5 L 6.671875 -2.6875 C 6.671875 -2.070312 6.570312 -1.550781 6.375 -1.125 C 6.1875 -0.707031 5.867188 -0.390625 5.421875 -0.171875 C 4.984375 0.0351562 4.378906 0.140625 3.609375 0.140625 Z M 3.609375 0.140625 "/></g></g></g><g fill="#ababab" fill-opacity="1"><g transform="translate(198.314872, 279.070498)"><g><path d="M 2.375 -3.046875 L 2.375 0 L 0.609375 0 L 0.609375 -8.5 L 3.390625 -8.5 C 3.742188 -8.5 4.09375 -8.460938 4.4375 -8.390625 C 4.78125 -8.328125 5.097656 -8.207031 5.390625 -8.03125 C 5.679688 -7.851562 5.910156 -7.59375 6.078125 -7.25 C 6.253906 -6.90625 6.34375 -6.445312 6.34375 -5.875 L 6.34375 -5.65625 C 6.34375 -4.976562 6.21875 -4.457031 5.96875 -4.09375 C 5.71875 -3.726562 5.398438 -3.460938 5.015625 -3.296875 L 6.34375 0 L 4.4375 0 L 3.28125 -3.046875 Z M 2.375 -4.578125 L 3.46875 -4.578125 C 3.632812 -4.578125 3.800781 -4.601562 3.96875 -4.65625 C 4.132812 -4.71875 4.273438 -4.828125 4.390625 -4.984375 C 4.503906 -5.148438 4.5625 -5.394531 4.5625 -5.71875 L 4.5625 -5.828125 C 4.5625 -6.148438 4.503906 -6.390625 4.390625 -6.546875 C 4.273438 -6.710938 4.132812 -6.820312 3.96875 -6.875 C 3.800781 -6.9375 3.632812 -6.96875 3.46875 -6.96875 L 2.375 -6.96875 Z M 2.375 -4.578125 "/></g></g></g><g fill="#ababab" fill-opacity="1"><g transform="translate(208.518081, 279.070498)"><g/></g></g><g fill="#ababab" fill-opacity="1"><g transform="translate(214.116198, 279.070498)"><g><path d="M 3.15625 -3.546875 C 2.238281 -3.671875 1.554688 -3.914062 1.109375 -4.28125 C 0.660156 -4.644531 0.4375 -5.210938 0.4375 -5.984375 L 0.4375 -6.109375 C 0.4375 -6.878906 0.691406 -7.492188 1.203125 -7.953125 C 1.722656 -8.410156 2.46875 -8.640625 3.4375 -8.640625 C 4.476562 -8.640625 5.238281 -8.398438 5.71875 -7.921875 C 6.195312 -7.441406 6.4375 -6.707031 6.4375 -5.71875 L 6.4375 -5.484375 L 4.671875 -5.484375 C 4.671875 -6.046875 4.578125 -6.457031 4.390625 -6.71875 C 4.203125 -6.976562 3.882812 -7.109375 3.4375 -7.109375 L 3.34375 -7.109375 C 2.988281 -7.109375 2.710938 -7.019531 2.515625 -6.84375 C 2.316406 -6.675781 2.21875 -6.453125 2.21875 -6.171875 L 2.21875 -6.125 C 2.21875 -5.914062 2.253906 -5.738281 2.328125 -5.59375 C 2.410156 -5.445312 2.554688 -5.328125 2.765625 -5.234375 C 2.984375 -5.140625 3.300781 -5.066406 3.71875 -5.015625 C 4.644531 -4.890625 5.335938 -4.644531 5.796875 -4.28125 C 6.265625 -3.914062 6.5 -3.335938 6.5 -2.546875 L 6.5 -2.4375 C 6.5 -1.625 6.234375 -0.988281 5.703125 -0.53125 C 5.179688 -0.0820312 4.425781 0.140625 3.4375 0.140625 C 2.425781 0.140625 1.660156 -0.09375 1.140625 -0.5625 C 0.628906 -1.03125 0.375 -1.773438 0.375 -2.796875 L 0.375 -2.890625 L 2.140625 -2.890625 C 2.140625 -2.367188 2.242188 -1.988281 2.453125 -1.75 C 2.671875 -1.507812 2.984375 -1.390625 3.390625 -1.390625 L 3.484375 -1.390625 C 3.890625 -1.390625 4.191406 -1.484375 4.390625 -1.671875 C 4.597656 -1.859375 4.703125 -2.097656 4.703125 -2.390625 L 4.703125 -2.4375 C 4.703125 -2.644531 4.65625 -2.820312 4.5625 -2.96875 C 4.476562 -3.113281 4.328125 -3.234375 4.109375 -3.328125 C 3.890625 -3.421875 3.570312 -3.492188 3.15625 -3.546875 Z M 3.15625 -3.546875 "/></g></g></g><g fill="#ababab" fill-opacity="1"><g transform="translate(224.406496, 279.070498)"><g><path d="M 2.375 -3.046875 L 2.375 0 L 0.609375 0 L 0.609375 -8.5 L 3.390625 -8.5 C 3.742188 -8.5 4.09375 -8.460938 4.4375 -8.390625 C 4.78125 -8.328125 5.097656 -8.207031 5.390625 -8.03125 C 5.679688 -7.851562 5.910156 -7.59375 6.078125 -7.25 C 6.253906 -6.90625 6.34375 -6.445312 6.34375 -5.875 L 6.34375 -5.65625 C 6.34375 -5.09375 6.253906 -4.640625 6.078125 -4.296875 C 5.910156 -3.953125 5.679688 -3.6875 5.390625 -3.5 C 5.097656 -3.320312 4.78125 -3.203125 4.4375 -3.140625 C 4.09375 -3.078125 3.742188 -3.046875 3.390625 -3.046875 Z M 2.375 -4.578125 L 3.46875 -4.578125 C 3.632812 -4.578125 3.800781 -4.601562 3.96875 -4.65625 C 4.132812 -4.71875 4.273438 -4.828125 4.390625 -4.984375 C 4.503906 -5.148438 4.5625 -5.394531 4.5625 -5.71875 L 4.5625 -5.828125 C 4.5625 -6.148438 4.503906 -6.390625 4.390625 -6.546875 C 4.273438 -6.710938 4.132812 -6.820312 3.96875 -6.875 C 3.800781 -6.9375 3.632812 -6.96875 3.46875 -6.96875 L 2.375 -6.96875 Z M 2.375 -4.578125 "/></g></g></g><g fill="#ababab" fill-opacity="1"><g transform="translate(234.457292, 279.070498)"><g><path d="M 3.65625 0.140625 C 2.5625 0.140625 1.75 -0.1875 1.21875 -0.84375 C 0.6875 -1.5 0.421875 -2.5625 0.421875 -4.03125 L 0.421875 -4.46875 C 0.421875 -5.9375 0.6875 -7 1.21875 -7.65625 C 1.75 -8.3125 2.5625 -8.640625 3.65625 -8.640625 C 4.757812 -8.640625 5.578125 -8.3125 6.109375 -7.65625 C 6.640625 -7 6.90625 -5.9375 6.90625 -4.46875 L 6.90625 -4.03125 C 6.90625 -2.5625 6.640625 -1.5 6.109375 -0.84375 C 5.578125 -0.1875 4.757812 0.140625 3.65625 0.140625 Z M 3.609375 -1.390625 L 3.71875 -1.390625 C 4.257812 -1.390625 4.625 -1.613281 4.8125 -2.0625 C 5.007812 -2.519531 5.109375 -3.175781 5.109375 -4.03125 L 5.109375 -4.46875 C 5.109375 -5.3125 5.007812 -5.960938 4.8125 -6.421875 C 4.625 -6.878906 4.257812 -7.109375 3.71875 -7.109375 L 3.609375 -7.109375 C 3.066406 -7.109375 2.695312 -6.878906 2.5 -6.421875 C 2.300781 -5.960938 2.203125 -5.3125 2.203125 -4.46875 L 2.203125 -4.03125 C 2.203125 -3.175781 2.300781 -2.519531 2.5 -2.0625 C 2.695312 -1.613281 3.066406 -1.390625 3.609375 -1.390625 Z M 3.609375 -1.390625 "/></g></g></g><g fill="#ababab" fill-opacity="1"><g transform="translate(245.204838, 279.070498)"><g><path d="M 3.90625 -6.96875 L 3.90625 0 L 2.140625 0 L 2.140625 -6.96875 L 0.1875 -6.96875 L 0.1875 -8.5 L 5.875 -8.5 L 5.875 -6.96875 Z M 3.90625 -6.96875 "/></g></g></g></svg>